<svg xmlns="http://www.w3.org/2000/svg" viewBox="0 0 678.19 473.82"><defs><style>.cls-1{fill:#fff;}</style></defs><title>adidas</title><g id="Layer_2" data-name="Layer 2"><g id="Layer_5_copy" data-name="Layer 5 copy"><g id="OBs4UQ"><path class="cls-1" d="M338.43,0c14,13.13,24.79,27.45,34.17,42.83C401,89.42,417.86,140,425,194c3.71,28.09,3.1,56.16.57,84.27-.16,1.79-.51,3.57-.8,5.51H252.25a369.27,369.27,0,0,1,9.17-137C275.64,92.16,297.89,41.62,338.43,0Z"/><path class="cls-1" d="M237.33,284H219q-88.46,0-176.92.09c-3.88,0-5.74-1.1-7.45-4.67C20.41,249.75,8.68,219.17,3.58,186.55,1.22,171.5,1,156.09,0,140.84c-.16-2.43.43-4.91.73-8C45.39,137,85.48,153.22,123.4,175.49A338,338,0,0,1,237.33,284Z"/><path class="cls-1" d="M677.51,132.69a196.12,196.12,0,0,1-2.11,49.14c-5.79,34.76-17.83,67.43-33.42,98.87-.74,1.5-3,3.17-4.61,3.18q-96.69.24-193.39.12c-.62,0-1.23-.15-3-.37a331.59,331.59,0,0,1,89.26-92.38C574.55,160.37,622.51,138.51,677.51,132.69Z"/><path class="cls-1" d="M49.74,309.81H626.16l1.22,1.13c-5.82,7.93-11.5,16-17.62,23.67-1,1.24-3.94,1.28-6,1.28q-76,.1-152,.05-189,0-378,.1c-4.29,0-7.09-1.06-9.43-4.73C60,324.34,55.1,317.63,49.74,309.81Z"/><path class="cls-1" d="M586.43,363.92a85.08,85.08,0,0,1-27.35,23.66c-1.19.64-2.94.31-4.43.31q-217.18,0-434.35-.11a13.35,13.35,0,0,1-8.06-2.8c-7.42-6.36-14.42-13.21-21.58-19.88l.67-1.18Z"/><path class="cls-1" d="M291.73,470.34c-52.66-5.64-97.47-26.52-140.1-56.63H289.69Z"/><path class="cls-1" d="M525,413.88c-42.43,30.44-87.51,51-139.16,56.3a11.77,11.77,0,0,1-.55-2.69c1.11-16.76,2.29-33.51,3.36-50.26.18-2.88,1.2-4,4.25-4q64.71.13,129.42.08A21.39,21.39,0,0,1,525,413.88Z"/><path class="cls-1" d="M338.38,473.82c-17.73-17.58-30.48-38.27-42.6-60.22h84.6C376.5,426.14,350.27,463.82,338.38,473.82Z"/></g></g></g></svg>