<svg xmlns="http://www.w3.org/2000/svg" viewBox="0 0 786.62 720.88"><defs><style>.cls-1{fill:#fed6cb;}.cls-10,.cls-12,.cls-13,.cls-2,.cls-4,.cls-7,.cls-8{fill:none;}.cls-3{fill:#febfae;}.cls-10,.cls-12,.cls-14,.cls-4,.cls-7,.cls-8{stroke:#000;}.cls-10,.cls-12,.cls-13,.cls-14,.cls-4,.cls-7,.cls-8{stroke-miterlimit:10;}.cls-13,.cls-4{stroke-width:8px;}.cls-5{fill:#fee8e2;}.cls-6{fill:#f4b4b0;}.cls-10,.cls-12,.cls-13,.cls-14,.cls-7,.cls-8{stroke-linecap:round;}.cls-7{stroke-width:4px;}.cls-14,.cls-8{stroke-width:5px;}.cls-9{fill:#fff;}.cls-10{stroke-width:7px;}.cls-11{fill:#5b3e18;}.cls-12{stroke-width:6px;}.cls-13{stroke:#fee8e2;}.cls-14{fill:#026615;}.cls-15{fill:#cca16d;}.cls-16{fill:#7a5022;}.cls-17{fill:#ad8f65;}.cls-18{fill:#474642;}.cls-19{fill:#574943;}.cls-20{fill:#473b37;}.cls-21{fill:#47494b;}.cls-22{fill:#333230;}.cls-23{fill:#3d3c39;}.cls-24{fill:#282726;}.cls-25{fill:#302825;}.cls-26{fill:#565759;}.cls-27{fill:#4f4e4a;}.cls-28{fill:#c19a76;}.cls-29{fill:#6d583b;}.cls-30{fill:#8c6e4f;}</style></defs><title>amanda</title><g id="Layer_2" data-name="Layer 2"><g id="head"><path class="cls-1" d="M555.94,282.6c5.81-1.57,13.37-10.65,17.44-9.73,5,1.14,8.64,4.26,10.13,8.15,4.55,11.83-1,23-5.39,40.51-2.76,11-3.47,30.84-5.94,34.92-6.64,11-10.13,21.9-17.81,26-5.25,2.81-9.22,2.26-13.6-1.77" transform="translate(-0.16 -0.13)"/><path class="cls-1" d="M233.43,282.6c-5.81-1.57-13.37-10.65-17.44-9.73-5,1.14-8.64,4.26-10.13,8.15-4.55,11.83,1,23,5.39,40.51,2.76,11,3.47,30.84,5.94,34.92,6.64,11,10.13,21.9,17.81,26,5.25,2.81,9.22,2.26,13.6-1.77" transform="translate(-0.16 -0.13)"/><path class="cls-1" d="M395.79,66.56c-162.67,0-163.67,198.67-163.67,198.67s21.12,135.67,40.46,168.67c7.82,13.34,32.43,34,58.88,53.5,21.68,16,44,27.54,64.22,27.54h-2c20.19,0,42.54-11.55,64.22-27.54,26.45-19.51,51.06-40.16,58.88-53.5,19.34-33,40.46-168.67,40.46-168.67s-1-198.67-163.67-198.67" transform="translate(-0.16 -0.13)"/><path class="cls-2" d="M557.05,266.44l-.12.77Z" transform="translate(-0.16 -0.13)"/><path class="cls-2" d="M557.25,265.22s-1-197.75-162.56-198.66h0C556.24,67.47,557.25,265.22,557.25,265.22Z" transform="translate(-0.16 -0.13)"/><path class="cls-2" d="M395.68,514.93l-1,0-1,0Z" transform="translate(-0.16 -0.13)"/><path class="cls-2" d="M394.68,66.57q-6.26,0-12.19.46,5.94-.42,12.19-.46Z" transform="translate(-0.16 -0.13)"/><path class="cls-2" d="M238.37,213.91q.61-2.9,1.29-5.89Q239,211,238.37,213.91Z" transform="translate(-0.16 -0.13)"/><path class="cls-2" d="M557.24,265.28l-.06.41Z" transform="translate(-0.16 -0.13)"/><path class="cls-2" d="M557.15,265.86l-.08.48Z" transform="translate(-0.16 -0.13)"/><path class="cls-2" d="M552.48,293.62c-2.53,8-3.84,17-4.64,25.38q-.87,4.58-1.8,9.34c-4.07,4.11-16-11.88-24.93-18.39-14.77-10.79-28.41-20.52-41.65-33.36-13.74-13.33-29.56-25.11-41-40.52C419,209.88,406.93,179.68,382.53,157c-10.53-9.79-26.23-21.48-41-23.31-5-.61-10.38.29-15.87,2-1.41,1.24-2.88,2.42-4.34,3.58l-3,2.42,6.18-2.81c-20.21,14-24.68,39.7-39.18,58.63-7.45,9.73-13.7,16.8-26.16,20-9.32,2.42-16.12.61-20.7-3.64-6.13,29.33-6.24,51.31-6.24,51.31s21.12,135.67,40.46,168.67c7.82,13.34,32.43,34,58.88,53.5,21.33,15.73,43.3,27.15,63.23,27.52,19.93-.37,41.9-11.79,63.23-27.52,26.45-19.51,51.06-40.16,58.88-53.5,17.94-30.61,37.4-149.53,40.13-166.6C556.28,271.3,554.72,280.9,552.48,293.62Z" transform="translate(-0.16 -0.13)"/><path class="cls-2" d="M254,163.41A264.13,264.13,0,0,0,239.67,208,264.16,264.16,0,0,1,254,163.41Z" transform="translate(-0.16 -0.13)"/><path class="cls-2" d="M382.41,67C354.62,69,332,77.1,313.49,89h0C332,77.11,354.62,69,382.41,67Z" transform="translate(-0.16 -0.13)"/><path class="cls-3" d="M395.79,66.56h0Z" transform="translate(-0.16 -0.13)"/><path class="cls-3" d="M393.58,66.56h0Z" transform="translate(-0.16 -0.13)"/><circle class="cls-3" cx="394.53" cy="66.44"/><path class="cls-3" d="M394.69,66.57h0Z" transform="translate(-0.16 -0.13)"/><path class="cls-3" d="M239.66,208v0Z" transform="translate(-0.16 -0.13)"/><path class="cls-3" d="M382.41,67h0Z" transform="translate(-0.16 -0.13)"/><polygon class="cls-3" points="238.21 213.79 238.21 213.79 238.21 213.78 238.21 213.79"/><path class="cls-3" d="M557.17,265.69l0,.17Z" transform="translate(-0.16 -0.13)"/><path class="cls-3" d="M556.93,267.22v0Z" transform="translate(-0.16 -0.13)"/><path class="cls-3" d="M557.07,266.34l0,.11Z" transform="translate(-0.16 -0.13)"/><path class="cls-3" d="M259.07,217.56c12.46-3.23,18.71-10.3,26.16-20,14.5-18.94,19-44.66,39.18-58.63l-6.18,2.81,3-2.42c1.46-1.16,2.93-2.34,4.34-3.58,5.49-1.71,10.88-2.61,15.87-2,14.81,1.83,30.51,13.52,41,23.31,24.4,22.68,36.43,52.87,55.91,79.07,11.46,15.41,27.27,27.19,41,40.52,13.24,12.84,26.89,22.57,41.65,33.36C530,316.46,542,332.45,546,328.34q.93-4.75,1.8-9.34c.8-8.39,2.12-17.37,4.64-25.38,2.24-12.73,3.8-22.32,4.44-26.33v-.07l.12-.77,0-.11.08-.48,0-.17.06-.41v-.06s-1-197.75-162.56-198.66q-6.26,0-12.19.46h-.08C354.62,69,332,77.11,313.5,89h0C284.64,107.56,266,135.35,254,163.41h0A264.16,264.16,0,0,0,239.67,208v0q-.69,3-1.29,5.89h0C242.95,218.17,249.75,220,259.07,217.56Z" transform="translate(-0.16 -0.13)"/><path class="cls-3" d="M557.25,265.22v0Z" transform="translate(-0.16 -0.13)"/><path class="cls-3" d="M583.5,281c-1.5-3.89-5.15-7-10.13-8.15-4.06-.93-11.63,8.15-17.44,9.73l-4.54,29.33a5.11,5.11,0,0,0,.51.41c2.31,1.52,5.45.89,7.86-.45s4.45-3.3,6.9-4.57c5-2.57,10.9-2,16.33-3.35C585.26,295.47,586.32,288.37,583.5,281Z" transform="translate(-0.16 -0.13)"/><path class="cls-4" d="M393.69,514.93c20.19,0,42.54-11.55,64.22-27.54,26.45-19.51,51.06-40.16,58.88-53.5,19.34-33,40.46-168.67,40.46-168.67s-1-198.67-163.67-198.67" transform="translate(-0.16 -0.13)"/><path class="cls-5" d="M554.37,382.48c4.57-2.45,7.66-7.31,10.81-13.16a29.14,29.14,0,0,0-20.89.31,8.25,8.25,0,0,0-2,1.07l-1.55,10C545.14,384.74,549.12,385.29,554.37,382.48Z" transform="translate(-0.16 -0.13)"/><path class="cls-5" d="M248.61,380.7l-1.45-9.34c-2.82-1.8-6.2-2.48-9.49-3.11a8.85,8.85,0,0,0-3.59-.19,7.14,7.14,0,0,0-3.05,1.77,17.54,17.54,0,0,0-3.75,4.77c2.22,3.43,4.63,6.21,7.73,7.87C240.25,385.29,244.23,384.74,248.61,380.7Z" transform="translate(-0.16 -0.13)"/><path class="cls-3" d="M233.43,282.6c-5.81-1.57-13.37-10.65-17.44-9.73-5,1.14-8.64,4.26-10.13,8.15a27.56,27.56,0,0,0-1.4,13.79c4.37,2.44,8.81,4.8,12.55,8.08,4.86,4.27,8.41,10,13.73,13.66a9.36,9.36,0,0,0,5.9,2,6,6,0,0,0,2.25-.65Z" transform="translate(-0.16 -0.13)"/><path d="M557.13,286.94c5.2-1.74,8.94-5.53,13.47-8.42,5.14-3.27,9,3.63,9.8,8.13,2.08,12.29-5.08,25.28-7.38,37.11-1.06,5.45-1.67,11-2.33,16.49-.52,4.31-.63,9.3-2.19,13.4-2,5.31-6,11.6-9.11,16.78-3.22,5.39-9,12.58-15.45,7.09-4.39-3.73-10.79,2.61-6.36,6.36,10.72,9.1,22.14,3,28.82-7.64a190.25,190.25,0,0,0,9.9-18c1.81-3.74,2.14-8.17,2.67-12.23a252.53,252.53,0,0,1,7.27-36.93c3-10.57,6.57-24.56-1.11-34.09-3.39-4.21-9.75-7.93-15.25-6.22-5.76,1.8-9.45,7.54-15.14,9.44-5.47,1.83-3.12,10.52,2.39,8.68Z" transform="translate(-0.16 -0.13)"/><path d="M575.84,284.83c-3.09,0-6.11,1.92-8.45,3.75a28.34,28.34,0,0,0-8.3,10.55c-3.62,7.89-5,16.66-5.67,25.25-.46,5.54-.26,11.06-.48,16.6,0,.55.27-.77-.05.13-.18.48-.32,1-.5,1.46-.63,1.73-1.31,3.44-1.91,5.19-1.15,3.33-2.49,7.28-1.73,10.84a5.7,5.7,0,0,0,9.8,2.84c1.73-1.77,2.56-4.3,3.39-6.58a10.84,10.84,0,0,1,5.78-6.27c3.43-1.78.4-7-3-5.18-4.55,2.37-7,5.7-8.75,10.43a16.84,16.84,0,0,1-1,2.38c-.16.29-.56.68-.61,1s.11.23.11.16c.05-.4.21.42.28.31a10.36,10.36,0,0,0-.13-1.42c.11-3.14,1.48-6.35,2.56-9.26.71-1.91,1.72-3.88,1.83-5.95.24-4.45,0-8.93.25-13.4a84.77,84.77,0,0,1,3.75-22,26.32,26.32,0,0,1,5.64-10,18.18,18.18,0,0,1,5.54-4.21,10.45,10.45,0,0,1,1.64-.53c.6-.15-.64,0,.08,0,3.86-.06,3.87-6.06,0-6Z" transform="translate(-0.16 -0.13)"/><path class="cls-4" d="M395.68,514.93c-20.19,0-42.54-11.55-64.22-27.54-26.45-19.51-51.06-40.16-58.88-53.5-19.34-33-40.46-168.67-40.46-168.67s1-198.67,163.67-198.67" transform="translate(-0.16 -0.13)"/><path d="M234.63,278.26c-5-1.67-8.53-6.25-13.19-8.6-4.85-2.44-9.93-.76-14.09,2.37-9.52,7.19-8.36,20.87-5.83,31.15,1.71,6.93,4.06,13.69,5.66,20.64a165.51,165.51,0,0,1,2.58,17.1c.59,4.87.89,10.06,2.33,14.77,1.68,5.52,5.49,10.83,8.22,15.9,3.05,5.64,6.63,11.58,12.43,14.77,6.85,3.77,13.28,2.42,19.06-2.48,4.42-3.75-2-10.09-6.36-6.36C239,383,233.18,375.84,230,370.43c-3.06-5.16-6.8-11.23-9-16.46-1.64-3.91-1.71-8.9-2.21-13-.7-5.73-1.31-11.5-2.41-17.17-2.27-11.7-9.19-24.34-7.5-36.48.64-4.6,4.5-12.21,9.92-8.76,4.54,2.89,8.27,6.68,13.47,8.42,5.51,1.84,7.87-6.85,2.39-8.68Z" transform="translate(-0.16 -0.13)"/><path d="M213.53,290.83c.25,0,.62.15-.15,0a11.17,11.17,0,0,1,1.44.4,15.2,15.2,0,0,1,4.7,3.13,24.13,24.13,0,0,1,5.93,8.63c2.88,6.9,4,14.57,4.54,22,.4,5.15.36,10.27.44,15.43a13.62,13.62,0,0,0,1.11,4.72,64.21,64.21,0,0,1,3,9.23c.17.82.13,3.14.18,3.22s.45-.42.47-.18c0-.58-1.08-1.79-1.32-2.36-.92-2.17-1.47-4.42-2.87-6.36a17.54,17.54,0,0,0-6.32-5.23c-3.42-1.78-6.46,3.4-3,5.18,2.34,1.22,4.33,2.71,5.39,5.19,1,2.25,1.53,4.64,3,6.66,2.43,3.38,7.58,4.11,9.88.13,1.76-3,.71-7.17-.21-10.31s-2.09-6.12-3.22-9.14c-.32-.86,0,.32-.05-.08s0-.56,0-.84c0-1,0-1.92,0-2.88,0-3.31-.09-6.63-.29-9.94-.52-8.56-1.57-17.44-4.72-25.48a30.58,30.58,0,0,0-8.29-12.35c-2.58-2.23-6-4.66-9.62-4.71-3.86-.06-3.86,5.94,0,6Z" transform="translate(-0.16 -0.13)"/></g><g id="face"><path class="cls-3" d="M416.7,359.51c-3.41-4.06-6.88-8.17-11.2-11.25s-9.68-5-14.93-4.28c-4.9.72-9.16,3.69-13,6.88a29.12,29.12,0,0,0-6.94,7.65c-.89,1.57-1.53,3.29-2.5,4.82-1.37,2.17-3.35,3.9-4.82,6a14.41,14.41,0,0,0-2.27,11.51,12.47,12.47,0,0,0,7.69,8.69c2.76,1,5.78.87,8.68,1.33,3.8.6,7.39,2.2,11.19,2.85,5.09.86,10.3,0,15.38-.9l11.93-2.07a13.65,13.65,0,0,0,4.67-1.4c2.31-1.36,3.61-3.94,4.46-6.49a15.49,15.49,0,0,0,.85-8.07c-.58-2.72-2.25-5.07-3.88-7.33l-6.23-8.64" transform="translate(-0.16 -0.13)"/><path class="cls-6" d="M394.25,438.22l-50-3.71s24.83,21,50,21,50-21,50-21Z" transform="translate(-0.16 -0.13)"/><path class="cls-7" d="M373.12,351.72s-.45,7.5-3.43,10.48c-2.55,2.55-9,5.86-9,15.82,0,9.07,7.53,13.51,7.53,13.51" transform="translate(-0.16 -0.13)"/><path class="cls-6" d="M401.46,420.51l-7.21,3.88L387,420.51s-33.32,12.13-39.75,12.13c0,0,31.92,4.13,47,2.63,15,1.5,47-2.62,47-2.62C434.77,432.64,401.46,420.51,401.46,420.51Z" transform="translate(-0.16 -0.13)"/><path class="cls-7" d="M379.49,350.72s5.84-7.42,14.76-7.42" transform="translate(-0.16 -0.13)"/><path class="cls-7" d="M340.86,432.64s19.42,3.75,53.58,3.75" transform="translate(-0.16 -0.13)"/><path d="M382.8,390s-2.71-4.25-5.13-4-5.13,3.11-8,0,.76-5.59,2.11-5.81C374.28,379.72,380.29,380,382.8,390Z" transform="translate(-0.16 -0.13)"/><path class="cls-8" d="M378.61,453.86a37.48,37.48,0,0,0,15.7,3.3" transform="translate(-0.16 -0.13)"/><path class="cls-7" d="M394.25,436.39c34.16,0,53.72-3.75,53.72-3.75" transform="translate(-0.16 -0.13)"/><path class="cls-8" d="M394.51,457.17a37.48,37.48,0,0,0,15.7-3.3" transform="translate(-0.16 -0.13)"/><path class="cls-7" d="M386.3,393.22s4.65,2.17,7.94,2.17" transform="translate(-0.16 -0.13)"/><path class="cls-7" d="M415.38,351.72s.45,7.5,3.43,10.48c2.55,2.55,9,5.86,9,15.82,0,9.07-7.53,13.51-7.53,13.51" transform="translate(-0.16 -0.13)"/><path class="cls-7" d="M409,350.72s-5.84-7.42-14.76-7.42" transform="translate(-0.16 -0.13)"/><path d="M405.69,390s2.71-4.25,5.13-4,5.13,3.11,8,0-.76-5.59-2.11-5.81C414.22,379.72,408.21,380,405.69,390Z" transform="translate(-0.16 -0.13)"/><path class="cls-7" d="M402.19,393.22s-4.65,2.17-7.94,2.17" transform="translate(-0.16 -0.13)"/><path class="cls-3" d="M535.2,252.67c-.52-4.79-5-8-9.07-10.6-8.94-5.68-19.21-11.57-29.45-9.54l-31.88,4.71c-7.64,1.13-20.29-3.93-26.05,1.21-5.09,4.54-17,13.58-17.37,35.58-.09,5.35,2.66,16.88.95,21.94-.36,1.06-.59,2.5.37,3.08,1.19.71,2.43-.77,3.26-1.88a10.58,10.58,0,0,1,3.38-2.9l2.19,3c3.59,4.86,13.32,23.91,35.27,25.59,32.63,2.49,40-17,41.63-21.7,2.46-7.17-10.34-5.82-12.82-10.12-1.9-3.31-5.36-4.9-9.2-5.67,7.31-1.76,14.58-3.71,21.83-5.66,4.3-1.16,8.69-2.35,12.42-4.79,4.56-3,7.8-7.56,10.82-12.09C533.51,259.74,535.6,256.32,535.2,252.67Z" transform="translate(-0.16 -0.13)"/><path class="cls-9" d="M425.42,298.79l11.87,5.06c14.1,6,29.59,12.15,44.35,8,11.09-3.14,20.51-17.89,21.49-29.37.24-2.77,0-5.73-1.65-8a13.29,13.29,0,0,0-4.09-3.48c-13.14-8-28.25-5-42.47.9a31.77,31.77,0,0,0-8,4.54c-2.45,1.94-5,3.33-7,5.7-4.1,4.76-6.48,7.41-10.58,12.17" transform="translate(-0.16 -0.13)"/><path class="cls-3" d="M367.13,268.51c-2.07-18-12.37-25.91-17-30-5.76-5.15-18.41-.09-26.05-1.21l-31.88-4.71c-10.24-2-20.52,3.86-29.45,9.54-4.07,2.58-8.55,5.81-9.07,10.6-.4,3.65,1.69,7.07,3.73,10.12,3,4.53,6.26,9.11,10.82,12.09,3.73,2.43,8.12,3.63,12.42,4.79,7.24,2,14.52,3.9,21.83,5.66-3.84.77-7.29,2.36-9.2,5.67-2.48,4.31-15.27,3-12.82,10.12,1.61,4.7,9,24.2,41.63,21.7,19.4-1.48,29.25-16.53,33.76-23.36,1.21,3.53,2.54,7,3.6,10.6,2.89,9.73,3.7,20,7.12,29.59a5.55,5.55,0,0,0,1.85,2.91c1.76,1.17,4.3,0,5.34-1.83s2.42-14,2.42-22.87C376.16,298.66,371.63,278.72,367.13,268.51Z" transform="translate(-0.16 -0.13)"/><path class="cls-9" d="M363.62,298.79l-11.87,5.06c-14.1,6-29.59,12.15-44.35,8-11.09-3.14-20.51-12.89-21.49-24.37-.24-2.77,0-10.73,1.65-13a13.29,13.29,0,0,1,4.09-3.48c13.14-8,29.56-2.47,43.78,3.4,3,1.23,5.51,3.79,8,5.79s5.86,3.29,7.9,5.65c4.1,4.76,5.19,6.82,9.29,11.57" transform="translate(-0.16 -0.13)"/><path class="cls-10" d="M263.58,282.13c5.5,6,15.5,2.75,15.5,2.75,47.55-47.08,84,18.84,84,18.84" transform="translate(-0.16 -0.13)"/><path class="cls-8" d="M285.83,288.63l3.87,13.09c25.75,26.73,61.67,2.25,61.67,2.25" transform="translate(-0.16 -0.13)"/><path class="cls-8" d="M282.74,277a19.25,19.25,0,0,1-15.41-9.08" transform="translate(-0.16 -0.13)"/><path class="cls-11" d="M363.07,227.46s-.24,16-5.49,21.19c0,0-39.92-17.19-75.58-14.19,0,0-28.67,17.33-33.33,27,0,0,12.92-26.33,27.29-34S315.81,212.79,363.07,227.46Z" transform="translate(-0.16 -0.13)"/><path class="cls-11" d="M425.42,227.46s.24,16,5.49,21.19c0,0,39.92-17.19,75.58-14.19,0,0,28.67,17.33,33.33,27,0,0-12.92-26.33-27.29-34S472.69,212.79,425.42,227.46Z" transform="translate(-0.16 -0.13)"/><path class="cls-8" d="M357.58,280.16s-24-46.29-71.75-18.79" transform="translate(-0.16 -0.13)"/><path class="cls-12" d="M363.07,227.46s-.24,16-5.49,21.19c0,0-39.92-17.19-75.58-14.19,0,0-28.67,17.33-33.33,27,0,0,12.92-26.33,27.29-34S315.81,212.79,363.07,227.46Z" transform="translate(-0.16 -0.13)"/><path class="cls-12" d="M371.17,233.79s-4.69,11.71-8.1,14.86" transform="translate(-0.16 -0.13)"/><path class="cls-10" d="M524.91,282.13c-5.5,6-15.5,2.75-15.5,2.75-47.55-47.08-84,18.84-84,18.84" transform="translate(-0.16 -0.13)"/><path class="cls-8" d="M502.66,288.63l-3.87,13.09C473,328.44,437.13,304,437.13,304" transform="translate(-0.16 -0.13)"/><path class="cls-8" d="M505.75,281a19.25,19.25,0,0,0,15.41-9.08" transform="translate(-0.16 -0.13)"/><path class="cls-8" d="M430.91,280.16s24-46.29,71.75-18.79" transform="translate(-0.16 -0.13)"/><path class="cls-12" d="M425.42,227.46s.24,16,5.49,21.19c0,0,39.92-17.19,75.58-14.19,0,0,28.67,17.33,33.33,27,0,0-12.92-26.33-27.29-34S472.69,212.79,425.42,227.46Z" transform="translate(-0.16 -0.13)"/><path class="cls-12" d="M417.32,233.79s4.69,11.71,8.1,14.86" transform="translate(-0.16 -0.13)"/><path class="cls-5" d="M375.43,445.12c-4.11-.67-7.53-3.51-11.65-3.94a1.94,1.94,0,0,0-.51,0c-.57.1-.63.64-.42,1.06.49,1,1.81,1.67,3,2.29a64,64,0,0,0,6.22,2.87c1.17.44,2.37.82,3.57,1.2a4.88,4.88,0,0,0,2.54.33c1.18-.32,1-1.63,0-2.37a9.6,9.6,0,0,0-3.77-1.34" transform="translate(-0.16 -0.13)"/><path class="cls-5" d="M382.29,356.6c-3.94,3.14-4.52,9.57,2.68,4.29a13.58,13.58,0,0,1,6.5-2.81c3.69-.31,13.31,6.48,16,1.56,3.07-5.66-9.54-8.92-13.88-7.92C388.42,352.91,384.86,354.56,382.29,356.6Z" transform="translate(-0.16 -0.13)"/><path class="cls-13" d="M386.87,293.06s4.88,14.12,1.55,33.06" transform="translate(-0.16 -0.13)"/><circle class="cls-14" cx="465.01" cy="286.86" r="17.61"/><circle class="cls-14" cx="320.93" cy="286.86" r="17.61"/><circle cx="465.01" cy="286.86" r="8.86"/><circle cx="320.93" cy="286.86" r="8.86"/></g><g id="hair"><path class="cls-11" d="M664.29,402.39a36,36,0,0,0,1.25-16.92c-1.65-8.61-7.2-15.88-12.72-22.68q-14-17.2-29.05-33.43c-1.28-1.37-2.61-2.75-4-4.09,4.7-10.1,9.27-20.35,8.22-31.25-.58-6.08-2.92-12-2.71-18.09s2.86-11.59,4.61-17.33c4.33-14.22,3.11-29.66-.9-44s-10.66-27.71-17.29-41c-7.7-15.47-16-31.64-30.4-41.2a47.74,47.74,0,0,0-4.52-2.65c-1.9-16-4.17-32-14.3-44-9.73-11.57-24.77-16.91-37.38-25.24-13.43-8.86-25-21.64-40.64-25.43A42.61,42.61,0,0,0,477.37,34l-.88-.85c-15.75-14.85-37.76-20.81-59-24.75-14-2.59-28.18-4.54-42.38-3.94s-28.51,3.87-40.73,11.14c-8.19,4.86-15.25,11.38-22.24,17.85-7.23,6.68-14.58,13.52-19.37,22.13-3.86,6.93-5.83,15.29-4.26,22.94-1.75.78-3.49,1.6-5.2,2.43-13.84,6.67-27.78,13.4-40,22.72s-22.73,21.51-27.45,36.13c-9.66,29.95,5.78,65.85-10.77,92.61-11.55,18.67-35.24,26.42-48.76,43.72-14.7,18.81-14.55,46-5.48,68.11s25.68,40.1,42.38,57.15c.47.48.95,1,1.43,1.43l9.73,41q.21.91.44,1.82a123,123,0,0,0-6.05,10.71c-11.27,21.74-22.55,43.51-31.9,66.15-4.48,10.85-8.58,22.51-6.67,34.09s9.56,21.35,18,29.42,18.07,15,25.61,24,13,20.67,11,32.21c-1.36,8,54,51.87,62.54,51.81,11-.07,19.37,10,29.88,13.38,2.68.86,5.94,1.15,8-.75,3.87-3.55-.05-9.74-3.63-13.59C296,676.33,286,652,293.24,630.35c6.8-20.24,27-34.19,36.48-52.64,4.83-1.79,8.33-6.32,10.89-10.89a65.35,65.35,0,0,0-4.54-71.1c-15-11.67-47.5-34-64.17-55.33-11-17.5-14.31-33.92-20.33-56.16a16.57,16.57,0,0,1-23.4-1.17c-4.46-5.09-7-10.88-10.26-16.08-3.83-6.17-6.22-12.27-6.75-14.83C210,345,209.7,340.85,209,334c-1.38-13.44-5.71-19.77-7.42-33.75,2.9-6.58,17.39-23.76,21.42-29.75,3.39,2.33,6.75,5.17,6.75,5.17a70.76,70.76,0,0,1-1.58-11.17c0-.53,5.38-14.48,5.31-15,13-12.88,28-24.41,35.72-40.89,6.45-13.68,7.3-29.71,15.16-42.64,10.4-17.1,32.66-24.3,51.5-25l8.39-10.71c5.69-12,2.08-11.15,16.41-11.15,10.51,0,32.76,5.2,41,12.62,26.21,23.69,51.45,85.51,80.74,112.94,8,7.5,13.48,18.34,23.19,22.95,6.84,8.27,15.29,15.43,23.87,21.95,14.57,11.07,30.22,21.22,41.66,35.5A95.82,95.82,0,0,1,580,338.46c-1,5.72-.84,10.89-2.93,18.18-4.55,10.23-13.47,26.63-20.42,29.38-12.77,5-16.31-1-18.75-1.78-1,1.78-10.12,43.82-21.07,56.89-23.53,28.08-59.06,49.28-59,52.36q.07,17.87,1.49,35.71c.25,3.07,1,6.74,3.82,7.85a4.19,4.19,0,0,0,1.51.28A76.62,76.62,0,0,0,473.14,549c7,8.21,14.7,17.52,13.85,28.28-.4,5.11-2.75,9.85-3.73,14.88s-.13,11.09,4.21,13.81c7,4.39,15.42-3,23.63-3.76,8.36-.75,15.87,5.9,19.32,13.56s3.91,16.26,5.25,24.55a114.85,114.85,0,0,0,48,75.59c4.91,3.35,12.24,6.06,16.17,1.59,3.67-4.18.84-10.53-.72-15.86-4.38-15,3.36-30.91,13.21-43s22.14-22.49,29.43-36.3c7-13.26,8.81-28.82,7.24-43.73s-6.33-29.3-11.89-43.23c-3.36-8.41-7.07-16.92-7.56-26-1.11-20.33,14-38.13,20.14-57.32a37.75,37.75,0,0,0,3.43-2.85c7.54-7.1,11.76-16.68,13.12-26.4A41.4,41.4,0,0,0,664.29,402.39Z" transform="translate(-0.16 -0.13)"/><path class="cls-15" d="M649,578.57a131.64,131.64,0,0,0-5.5-25.46c-22.05-14.22-53.36-26.54-69.13-42.1-10-9.89-20.62-16.63-25.78-34.07-2.74-9.25-2.18-30.43-.92-39.15,0,0-7.42,10.23-13.25,12.62-9.36,3.84-16.32,15.17-20.32,22.35-7.11,12.76-7.2,37.14,3.33,49.09.75,5.33,3.92,10.51,2.88,16.5-2.19,12.58-13.56,22.4-23.19,29.55a66.27,66.27,0,0,0-10.17,9.6c-.46,5-2.73,9.68-3.7,14.62s-.13,11.09,4.21,13.81c7,4.39,15.42-3,23.63-3.76,8.36-.75,15.87,5.9,19.32,13.56s3.91,16.26,5.25,24.55a114.85,114.85,0,0,0,48,75.59c4.91,3.35,12.24,6.06,16.17,1.59,3.67-4.18.84-10.53-.72-15.86-4.38-15,3.36-30.91,13.21-43s22.14-22.49,29.43-36.3C648.75,609,650.56,593.48,649,578.57Z" transform="translate(-0.16 -0.13)"/><path class="cls-15" d="M315.24,706.67c3.87-3.55-.05-9.74-3.63-13.59C296,676.33,286,652,293.24,630.35c5.61-16.69,20.31-29.1,30.62-43.29.81-14.33.58-30.24-3.73-44.93-6.34-21.61-24.93-19.79-33.6-51.79-2.07-7.65-.12-18.71-6.12-33.16-3.41-8.22-18.51-19.88-20.75-25.8l5.42,12.83c6.79,4.23-.11,19.92-1.8,25.92q-.33,1.17-.68,2.29c-7.25,15.24-20.46,25.52-36.79,33-21.38,9.73-43.95,16.56-63.18,28.4-2.36,7.46-3.72,15.14-2.46,22.78,1.91,11.56,9.56,21.35,18,29.42s18.07,15,25.61,24,13,20.67,11,32.21c-1.36,8,4.95,6,7.86,18.7,1.81,7.88,44.1,40.55,52.61,40.49,11-.07,21.43,2.63,31.94,6C309.9,708.28,313.16,708.57,315.24,706.67Z" transform="translate(-0.16 -0.13)"/><path class="cls-16" d="M332.42,92.89c14-13.56,54.27-10,72.31-2.75s32.18,21.83,43.82,37.41,21.39,32.58,33.94,47.44c18.93,22.4,43.53,39.13,65.37,58.69s41.79,43.7,46.49,72.64c3.92-13.45,4.7-28,1-41.48-2.48-8.95-6.86-17.25-11.71-25.17a193.89,193.89,0,0,0-41.23-48.21c-8.89-7.36-18.5-13.82-27.48-21.08-38.81-31.41-64-76.32-97.59-113.22-4.74-5.2-9.74-10.32-15.81-13.89-6.49-3.82-13.94-5.71-21.38-6.9-12.2-2-25.18-2-36.37,3.19A42,42,0,0,0,320.17,78.2" transform="translate(-0.16 -0.13)"/><path class="cls-16" d="M511.86,122.77q31.43,14.28,61.35,31.6c9.57,5.54,19.18,11.45,26.38,19.85,11.1,13,15.57,30.83,27.62,42.91.05-18-7.33-35.14-15-51.44-3.58-7.6-7.34-15.29-13.11-21.4-16.07-17-42.56-17.47-64.17-26.51-15.39-6.43-29.58-17.76-46.26-17.85a39.84,39.84,0,0,0,27.87,25.74" transform="translate(-0.16 -0.13)"/><path class="cls-16" d="M284,80.58c3.41-.89,6.47,3.16,6,6.65s-3.26,6.17-6,8.39c-12.16,9.88-27.29,16.28-37.34,28.3-12,14.36-14.72,34.18-16,52.86S228.85,215,220,231.47c-7.85,14.56-21.34,25.05-33.73,36s-24.53,23.76-28,39.93c-2.79,12.92.33,26.31,3.63,39.12,1.88,7.33,3.84,14.9,2.61,22.37a122.41,122.41,0,0,1-16.91-70c.47-7.32,1.77-15,6.45-20.66,4.17-5,10.47-7.79,15.21-12.29,4.49-4.27,7.37-9.9,11-14.89,6.12-8.33,14.36-14.82,21.55-22.25s13.58-16.44,14.45-26.74c.72-8.61-2.48-17-4.27-25.45A78.43,78.43,0,0,1,274.7,83.22" transform="translate(-0.16 -0.13)"/><path d="M476.45,93.17c22.27,16.58,50,20.71,75.64,29.69,12.82,4.49,25.24,10.58,35.18,20,10.61,10.06,18,23,23.76,36.28,6.11,14,10.75,28.82,15,43.49,2.3,7.89,4.29,16,4,24.29-.31,8.7-4.7,15-8.1,22.62a25.55,25.55,0,0,0-.91,19.56c1.11,3.25,2.62,6.38,3.34,9.75,1,4.49.19,9-1.21,13.26-2.37,7.31-6.45,14-9.42,21a117.8,117.8,0,0,0-6.39,19.92c-7,31.29-2.4,65.46,14.13,93.08,3,5,10.76.44,7.77-4.54-15.15-25.31-19.64-56.62-13.39-85.37A109.58,109.58,0,0,1,622.69,335c3.15-7.09,7.14-13.84,9.42-21.3a33.64,33.64,0,0,0-.44-21.79c-1.14-3.17-2.72-6.37-3.19-9.73-.58-4.22,1.1-8,3-11.69,3.58-6.84,6.68-13.14,7.41-21,.75-8.05-.73-16.28-2.72-24.06a355.13,355.13,0,0,0-14.71-44.53c-5.36-13.25-11.86-26-21-37.1-8.93-10.8-20.47-18.91-33.23-24.6C539,106.62,506.37,104.29,481,85.4c-4.65-3.46-9.14,4.35-4.54,7.77Z" transform="translate(-0.16 -0.13)"/><path d="M450.28,489.67c-2.08,23.79,6.52,46.56,21.34,64.93,3.64,4.51,10-1.89,6.36-6.36-13.37-16.57-20.57-37.24-18.71-58.57.5-5.77-8.5-5.74-9,0Z" transform="translate(-0.16 -0.13)"/><path d="M620.88,335.89c16.84,15.59,34.22,32.2,40.44,55.09,6.3,23.2-3.69,44.46-14.76,64.38s-23.06,41.3-20.46,64.79c2.37,21.42,17.78,38.56,20.23,59.95,2.49,21.71-5.23,45-22.1,59.23-4.43,3.75,2,10.08,6.36,6.36,15.29-12.93,23.59-32.61,25-52.35a75.21,75.21,0,0,0-4.15-30.55c-4-11-10.2-21.15-13.86-32.31-8.31-25.36,4.73-48.93,16.77-70.59,11.41-20.53,21.45-42.38,16.81-66.41-5.16-26.67-24.75-46.25-43.9-64-4.25-3.93-10.63,2.42-6.36,6.36Z" transform="translate(-0.16 -0.13)"/><path d="M543,185.62c6,19.18,20.92,32.31,36.67,43.81,16.05,11.72,33.57,23.64,40,43.45,1.79,5.48,10.48,3.14,8.68-2.39-6.24-19.11-21.16-32.1-36.92-43.6-16.08-11.72-33.51-23.76-39.79-43.67-1.73-5.5-10.43-3.15-8.68,2.39Z" transform="translate(-0.16 -0.13)"/><path d="M321.36,81.45c4.28-16,14.64-30,29.34-37.85C366,35.45,383.26,37,398.24,45c34.89,18.76,50.8,58.68,74,88.66,12.26,15.85,26.84,30,45.69,37.54,5.37,2.16,7.71-6.54,2.39-8.68-18.55-7.45-32.76-22.92-44.32-38.73-12.65-17.29-23.09-36.09-36.17-53.08-21.45-27.86-56.57-53.59-92.44-35.55-17.29,8.7-29.73,25.34-34.7,43.86-1.5,5.6,7.18,8,8.68,2.39Z" transform="translate(-0.16 -0.13)"/><path d="M287.22,698.58c-1.25.37,0,.09-.59.12a13.74,13.74,0,0,1-1.63,0,30.35,30.35,0,0,1-4.8-.7,76.36,76.36,0,0,1-14-4.51A85.57,85.57,0,0,1,234.88,671a62.91,62.91,0,0,1-11.54-19.61c-3.15-8.79-4.28-18.14-7.6-26.91-3.25-8.59-7.75-16.8-14.37-23.27S186.89,590.1,180,584.1c-7.21-6.32-13.33-13.72-15.82-23.16-2.75-10.43-.85-21.38,2.69-31.39,7.06-20,21.55-35.91,31.4-54.44,9.5-17.87,13.44-37.58,6.92-57.18-6.31-19-19.46-34.34-31.85-49.6-12.79-15.76-25.93-34.73-25.82-55.87.08-15.79,8.66-28.55,19.39-39.39,19.28-19.49,47.76-36.2,51.53-65.89,1.38-10.91-1.11-21.69-3-32.38s-2.45-21.2.72-31.79c5.92-19.78,21.07-34.26,38.1-45a153.32,153.32,0,0,1,27.32-13.35c1.92-.73,4.78-1.23,6.32-2.58s1.85-3.31,2.44-5.26a92.14,92.14,0,0,1,5.91-14.76c8.66-17.24,22-32.92,38.9-42.56,19.35-11.06,43.73-11.36,65.24-8.19,22.16,3.26,43.89,10.2,64.66,18.44A376.14,376.14,0,0,1,526.35,61c16.46,10.34,37.8,22,43.37,42,2.16,7.75,3.5,16.57,1.78,24.53-1.23,5.65,7.45,8.06,8.68,2.39,2.2-10.16.74-21.45-2.35-31.28-3.57-11.32-11.25-19.78-20.44-27.07-21.92-17.37-47-31.54-72.43-43S432.35,7.31,404.63,2.93c-25.51-4-53.95-3.71-76.54,10.33-22.84,14.19-40.17,38.28-47.24,64.12L284,74.23C257.06,84,229.24,99,214.44,124.61A69.09,69.09,0,0,0,205.23,167c1.66,14.88,7.34,30.08,3.17,45-5.75,20.61-25.63,34.15-40.62,47.87-16.68,15.26-31.08,33.58-29,57.53,2.72,31.59,27,53.26,44.18,77.65,8.57,12.14,16,25.91,16.66,41.07.69,16-6.23,30.53-14.45,43.8-15.25,24.62-37.39,51.52-29.8,82.66,3.37,13.84,13.16,24.07,24,32.63,5.39,4.24,11.3,8.06,16.14,12.94a52.72,52.72,0,0,1,11.26,18.06c4.79,12.25,5.88,25.44,12.06,37.19a78.44,78.44,0,0,0,20.59,24.48c12.3,9.81,28.2,18.25,44.13,19.74a16.16,16.16,0,0,0,6-.33c5.54-1.64,3.18-10.32-2.39-8.68Z" transform="translate(-0.16 -0.13)"/><path d="M336.4,496.66A72.46,72.46,0,0,1,343.55,542c-2.72,16.29-11.38,29.53-22,41.83-10,11.65-20.92,22.83-27.8,36.77s-9.08,29.18-4.33,44c5.18,16.15,16.58,29.29,28,41.47,4,4.24,10.31-2.13,6.36-6.36-10.1-10.82-20.59-22.47-25.4-36.76-5.31-15.75-1.29-31.35,7.26-45.12,8.27-13.3,19.92-24,29.44-36.34,9.32-12.09,15.72-25.47,17.71-40.69a81.79,81.79,0,0,0-8.59-48.71c-2.7-5.12-10.47-.58-7.77,4.54Z" transform="translate(-0.16 -0.13)"/><path d="M277.31,605.13c-6.35-13.08-18-21.8-28.18-31.73-4.89-4.77-9.63-10-12.29-16.41-3.45-8.28-2.62-17.29.62-25.5,6.91-17.52,22.65-29.69,29.84-47.1,7.28-17.63,3.64-36.59-4.47-53.25-7.53-15.47-18.39-28.63-30.78-40.42-11.13-10.6-24.12-21.26-30.56-35.58-7.09-15.76-2.84-35.85,2.89-51.33,6.37-17.22,16.74-32.54,29.3-45.82,11.2-11.84,23.6-22.63,33.06-36a90.86,90.86,0,0,0,11.6-22.58,36.74,36.74,0,0,0,1.2-4.37c-.43,2-.15,1-.06.53.16-.9.31-1.8.49-2.7,4.06-20,15.9-40,36.36-46.36A29.32,29.32,0,0,1,326.44,145c3.07.13,6.17.83,9.24.46a8.8,8.8,0,0,0,6.42-3.44c2.09-2.85,1.07-5.6,1.72-8.72.84-4.05,7.3-6,10.67-7.1a54.53,54.53,0,0,1,17.84-2.61c11.43.34,23.57,8.75,32,15.88,12.46,10.59,21.93,24.15,29,38.82,4.17,8.64,7,17.82,11.13,26.49a153.59,153.59,0,0,0,14.07,23.65c10.66,14.85,23.37,28.06,36.89,40.32,14.18,12.85,29.28,24.46,44.28,36.31s29.68,25,39.34,41.88a82.18,82.18,0,0,1,9.55,26c1,5.69,9.73,3.28,8.68-2.39-3.42-18.53-13.15-35-25.7-48.85-14.06-15.5-31.53-27.25-47.68-40.39-29.32-23.86-59.47-51-74.16-86.72-7.1-17.25-14-33.64-26-48.19-9.16-11.13-20.63-20.73-33.76-26.81-5.34-2.48-10.75-4.65-16.68-5a61.46,61.46,0,0,0-18.5,2.14c-5.52,1.44-11.56,3.61-15.73,7.68a13.76,13.76,0,0,0-3.77,6,13.9,13.9,0,0,0-.43,3.26c0,.84.32,1.93.06,2.75-.32,1,.49,0,.16.1-2.15.9-6.32-.4-8.61-.5a35.64,35.64,0,0,0-11.29,1.47,54.57,54.57,0,0,0-18.73,9.5c-9.32,7.26-15.92,17.27-20.38,28.11a107,107,0,0,0-5.31,18.51c-3.26,15.07-14.54,28.5-25,39.36-12.46,12.93-25.65,25-35.62,40.06-10.22,15.46-17.78,33.15-20.22,51.59-2.29,17.31.52,33,11.21,47,10,13.08,23.12,23.17,34.27,35.18,12.55,13.52,23.85,31.57,26.49,50.09a47.13,47.13,0,0,1-5.69,29.94c-4.52,8.1-10.62,15.14-16.12,22.57-10.72,14.47-18.9,32.73-11.67,50.59,5.49,13.56,17.57,22.43,27.76,32.29,5.35,5.18,10.11,10.7,13.39,17.45,2.53,5.21,10.29.65,7.77-4.54Z" transform="translate(-0.16 -0.13)"/><path d="M546.12,395.61c12.69,7.53,7.85,26.27.89,35.86-8.65,11.92-22,19.33-31.22,30.8a51.66,51.66,0,0,0-10.84,40.22c2.23,15.11,12.27,25,19.59,37.65,10.18,17.59,1.27,35.79-7.79,51.75-2.86,5,4.91,9.58,7.77,4.54,8.14-14.33,16.37-30.55,13-47.53-3.12-15.93-17.37-26-22.19-41.06-5.3-16.57,0-33,12.07-45.06,11.28-11.27,25.42-20,32.13-35.09,5.83-13.11,4.55-31.85-8.91-39.83-5-3-9.53,4.82-4.54,7.77Z" transform="translate(-0.16 -0.13)"/><path d="M587.59,464.53c-11.1,12-12.59,29.75-8.81,45.08,4.69,19,16.89,34.82,24,52.85,3.62,9.15,5.66,18.71,4.86,28.58-.83,10.14-4.38,20-8.53,29.2-7.81,17.33-18.4,33.89-21.46,53-2.6,16.28.28,35.67,13.69,46.71,4.44,3.65,10.84-2.68,6.36-6.36-11.52-9.48-13.67-26.32-11-40.24,3.5-18,13.57-33.58,20.86-50.15,7.23-16.42,11.61-33.76,7.48-51.61-3.92-16.95-13.86-31.49-21.25-47-7.64-16-13.5-38.94.09-53.66,3.92-4.25-2.43-10.63-6.36-6.36Z" transform="translate(-0.16 -0.13)"/></g><g id="skyrim_helm"><path d="M733.15,120.4c37.94,28.34,54.93,61.79,53.45,105.28-1.69,49.5-26,85.1-46.06,106.25-23.16,24.4-46.19,35.95-50.35,36.27-.36,0-.71,0-1.06,0a6.59,6.59,0,0,1-5.51-2.28c-2.19-2.8-.94-6.81-.79-7.26l.16-.47.37-.34c15.52-14,28.49-37,33.84-60,4.7-20.18,6-50.13-14.73-78.19-26.83-36.39-94.63-31.64-106.07-30.56,0-1.12,0-2.41,0-3.83a213.75,213.75,0,0,1,41.69.42c31.41,3.54,54.72,14.51,67.4,31.7,21.55,29.23,20.26,60.36,15.37,81.32-5.47,23.47-18.69,47-34.59,61.54-.19.88-.36,2.44.3,3.28s2.12.87,3.26.78c3.24-.26,25.73-11.76,47.89-35.1,19.63-20.68,43.36-55.46,45-103.76,1.43-42.14-15.06-74.58-51.93-102.11-32.32-24.13-75.72-41.59-129-61.7.15-.78.31-1.45.48-2l.3-1-1-1.14C655.92,78.06,700.1,95.72,733.15,120.4Z" transform="translate(-0.16 -0.13)"/><path class="cls-17" d="M730.86,123.45c36.86,27.53,53.36,60,51.93,102.11-1.65,48.3-25.38,83.08-45,103.76-22.16,23.34-44.65,34.84-47.89,35.1-1.13.09-2.61,0-3.26-.78s-.49-2.4-.3-3.28c15.89-14.55,29.12-38.07,34.59-61.54,4.89-21,6.18-52.09-15.37-81.32-12.68-17.19-36-28.15-67.4-31.7a213.75,213.75,0,0,0-41.69-.42c.34-27.25,1.63-105.14,5.37-123.63C655.15,81.86,698.55,99.31,730.86,123.45Z" transform="translate(-0.16 -0.13)"/><path d="M601.6,57.57l1,1.14-.3,1c-.16.56-.32,1.23-.48,2l-2-.76a1.91,1.91,0,0,1,1.34-3.57Z" transform="translate(-0.16 -0.13)"/><path class="cls-18" d="M599.82,61l2,.76c-3.74,18.49-5,96.38-5.37,123.63-1.37.12-2.13.22-2.17.22a1.91,1.91,0,1,0,.48,3.78l1.65-.17c0,3.45-.06,5.47-.06,5.62l0,1.89H569.77l.2,4.42h-.06c-4-20.09-15.64-43.81-16.15-44.82l-.1-.19-.13-.16c-15.59-19.24-28.9-49.27-37.31-71.08-9.16-23.7-14.66-43.07-14.72-43.26a1.89,1.89,0,0,0-1.83-1.39c39.88,2.72,92,7.77,92.74,7.84l.74.07,8.44,9.41-.44-.16A1.91,1.91,0,0,0,599.82,61Z" transform="translate(-0.16 -0.13)"/><path d="M596.46,185.38c0,1.42,0,2.71,0,3.83l-1.65.17a1.91,1.91,0,1,1-.48-3.78S595.09,185.5,596.46,185.38Z" transform="translate(-0.16 -0.13)"/><path class="cls-18" d="M574.56,245.33l2.75,100.26-.08.28c-2.24,8-31.58,70.37-32.82,73l-.24.5-.47.3-74.52,47.18-33.81-68c-5.65-5-31.38-15.84-41.86-20-10.51,4.18-36.31,15-42,20l-33.81,68-75-47.48-.24-.5c-1.25-2.65-30.57-65-32.81-73l-.09-.28,2.75-100.25a1.88,1.88,0,0,0,.4,1.14c3.65,4.75,9.37,7.85,14.64,9.83v25.23l.41.51c1.24,1.56,30.34,38.3,35.18,42.5s48.31,22.11,53.25,24.14l.85.34,33.54-18.57V382a1.91,1.91,0,1,0,3.81,0V371.17h1.69A5.81,5.81,0,0,0,367.49,373a1.58,1.58,0,0,0,.3,0h0A1.91,1.91,0,0,0,369.7,371l-.39-21.36-.43-23.37-1.11-60-.67-36.66-.18-9.53L363.35,24.55a1.91,1.91,0,0,0-1.91-1.88h0a1.94,1.94,0,0,0-1.06.34l0-.09c3.58-4.71,11.41-14.48,15.09-15.15,3-.54,8.64-1.31,10.38-1.53l7.76-6,7.64,6c1.74.23,7.37,1,10.37,1.53,3.68.67,11.51,10.44,15.09,15.15l0,.09a1.94,1.94,0,0,0-1.06-.34,1.9,1.9,0,0,0-1.93,1.88L420,220.07l-.17,9.32-.68,36.87-1.11,60-.43,23.37L417.24,371A1.91,1.91,0,0,0,419.1,373h0l.31,0a5.81,5.81,0,0,0,11.35-1.78h1.68V382a1.91,1.91,0,0,0,3.81,0V330.48L469.83,349l.85-.34c4.94-2,48.39-19.93,53.25-24.14s33.94-40.94,35.18-42.5l.41-.51V256.31c5.28-2,11-5.08,14.64-9.83A1.9,1.9,0,0,0,574.56,245.33Zm-158-118.82a7.8,7.8,0,1,0-7.8,7.8A7.81,7.81,0,0,0,416.56,126.5Zm0,47.64a7.8,7.8,0,1,0-7.8,7.8A7.81,7.81,0,0,0,416.56,174.14ZM415.43,83a6.67,6.67,0,1,0-6.68,6.67A6.69,6.69,0,0,0,415.43,83Zm-.72-58.44a6,6,0,1,0-6,5.95A6,6,0,0,0,414.71,24.58Zm0,22.24a6,6,0,1,0-6,5.95A6,6,0,0,0,414.71,46.81ZM402.23,236a8.81,8.81,0,1,0-8.81,8.81A8.82,8.82,0,0,0,402.23,236ZM386,126.5a7.8,7.8,0,1,0-7.79,7.8A7.81,7.81,0,0,0,386,126.5Zm0,47.64a7.8,7.8,0,1,0-7.79,7.8A7.81,7.81,0,0,0,386,174.14ZM384.85,83a6.67,6.67,0,1,0-6.67,6.67A6.68,6.68,0,0,0,384.85,83Zm-.72-58.44a5.95,5.95,0,1,0-5.95,5.95A6,6,0,0,0,384.13,24.58Zm0,22.24a5.95,5.95,0,1,0-5.95,5.95A6,6,0,0,0,384.13,46.81Z" transform="translate(-0.16 -0.13)"/><path d="M574.55,245.11v.22a1.9,1.9,0,0,1-.4,1.15c-3.66,4.75-9.37,7.85-14.64,9.83v-1.16a1.91,1.91,0,0,0-1.91-1.91,1.78,1.78,0,0,0-.56.09l-.06-.17c5.08-1.76,10.76-4.6,14.15-9a1.91,1.91,0,0,1,2.68-.35A1.89,1.89,0,0,1,574.55,245.11Z" transform="translate(-0.16 -0.13)"/><path class="cls-19" d="M573.6,210.38l1,34.73a1.89,1.89,0,0,0-.73-1.31,1.91,1.91,0,0,0-2.68.35c-3.39,4.4-9.07,7.24-14.15,9a58.92,58.92,0,0,1-10.88,2.64h-.06c-3.61.3-83,7.15-120.55,8.08h-.06l-1.86,0v.14l-.58.07.6-32.66c12.77-.12,107.36-1.09,117-3.37,10.19-2.43,31.2-15.56,32.1-16.12a1.91,1.91,0,0,0,.89-1.61Zm-26.53,31.54a7.8,7.8,0,1,0-7.8,7.8A7.81,7.81,0,0,0,547.07,241.92ZM503,245.32a7.8,7.8,0,1,0-7.8,7.79A7.81,7.81,0,0,0,503,245.32Zm-45.84,0a7.8,7.8,0,1,0-7.8,7.79A7.81,7.81,0,0,0,457.17,245.32Z" transform="translate(-0.16 -0.13)"/><path class="cls-19" d="M573.49,206.51l.1,3.87h0a1.93,1.93,0,0,0-.29-1,1.9,1.9,0,0,0-2.63-.6c-.21.13-21.36,13.35-30.95,15.63-7.65,1.83-78.43,2.93-116,3.27l.1-5.71c13.42-.13,107.24-1.1,116.8-3.37,10.24-2.44,27.86-14.7,28.6-15.23l1-.71-.23-1.22-.06-.29H570l3.51,4.77Z" transform="translate(-0.16 -0.13)"/><path d="M573.28,209.37a1.93,1.93,0,0,1,.29,1,1.91,1.91,0,0,1-.89,1.61c-.9.56-21.9,13.69-32.1,16.12-9.61,2.29-104.21,3.25-117,3.37l.07-3.82c37.6-.34,108.38-1.44,116-3.27,9.59-2.28,30.74-15.49,30.95-15.63A1.9,1.9,0,0,1,573.28,209.37Z" transform="translate(-0.16 -0.13)"/><path d="M570,201.43l.23,1.22-1,.71c-.74.52-18.36,12.79-28.6,15.23-9.57,2.28-103.39,3.24-116.8,3.37l.07-3.82c37.64-.34,108.22-1.45,115.86-3.27,8.19-2,22.35-11.28,26.27-13.93-3.87-18.5-14.44-40.48-15.54-42.73-15.84-19.64-29.29-50-37.79-72-9.21-23.86-14.76-43.37-14.82-43.56a1.91,1.91,0,0,1,1.31-2.35,2,2,0,0,1,.52-.08,1.89,1.89,0,0,1,1.83,1.39c.06.19,5.56,19.56,14.72,43.26,8.41,21.81,21.72,51.84,37.31,71.08l.13.16.1.19c.5,1,12.17,24.72,16.15,44.82Z" transform="translate(-0.16 -0.13)"/><path d="M559.51,256.31v25.23l-.41.51c-1.24,1.56-30.34,38.3-35.18,42.5s-48.31,22.11-53.25,24.14l-.85.34-33.54-18.57v-4.35l33.79,18.7c19.18-7.89,48.08-20.31,51.36-23.14,3.61-3.13,23.75-28.19,34.27-41.47V257.59C556.92,257.23,558.21,256.81,559.51,256.31Z" transform="translate(-0.16 -0.13)"/><path d="M559.51,255.15v1.16c-1.31.5-2.59.91-3.81,1.28v-2.44a1.91,1.91,0,0,1,1.34-1.82,1.78,1.78,0,0,1,.56-.09A1.91,1.91,0,0,1,559.51,255.15Z" transform="translate(-0.16 -0.13)"/><path class="cls-18" d="M550.43,158.2c1.1,2.25,11.67,24.23,15.54,42.73-3.92,2.65-18.07,12-26.27,13.93-7.64,1.82-78.22,2.93-115.86,3.27L427.4,24.61a1.92,1.92,0,0,0-.82-1.6l0-.09c9.06,2.78,33.88,14,37.39,15.63,8.2,0,21.11.71,35.65,1.7a2,2,0,0,0-.52.08,1.91,1.91,0,0,0-1.31,2.35c.06.19,5.6,19.7,14.82,43.56C521.15,108.25,534.59,138.57,550.43,158.2Z" transform="translate(-0.16 -0.13)"/><path d="M557,253.16l.06.17a1.91,1.91,0,0,0-1.34,1.82v2.44a65.29,65.29,0,0,1-7.46,1.75v-3.73l-2.07.18h-.07A58.92,58.92,0,0,0,557,253.16Z" transform="translate(-0.16 -0.13)"/><path class="cls-20" d="M555.7,257.59v22.63c-10.52,13.27-30.66,38.33-34.27,41.47-3.28,2.83-32.18,15.25-51.36,23.14l-33.79-18.7v-8.71L470,333.59l.74-.26c1.63-.57,40-14,47.84-21.37,7.63-7.16,28.37-33.38,29.25-34.49l.41-.52V259.34A65.29,65.29,0,0,0,555.7,257.59Z" transform="translate(-0.16 -0.13)"/><path d="M548.24,259.34v17.61l-.41.52c-.88,1.11-21.62,27.33-29.25,34.49-7.83,7.34-46.21,20.8-47.84,21.37l-.74.26-33.71-16.18v8.71l-1-.54a1.91,1.91,0,0,0-2.83,1.67V314.69l-8.89-27.15V267.91l2.11-.22a1.45,1.45,0,0,0,.35-.08l1.35,0v19.27l8.54,26.1,34.29,16.45c13.77-4.85,40.06-15,45.74-20.29,6.86-6.43,25.46-29.77,28.46-33.56V259.77l.65-.65a1.92,1.92,0,0,0,1.26.48h.23C546.69,259.57,547.29,259.49,548.24,259.34Z" transform="translate(-0.16 -0.13)"/><path d="M548.24,255.62v3.73c-1,.15-1.55.23-1.68.25h-.23a1.92,1.92,0,0,1-1.26-.48,2,2,0,0,1-.64-1.2,1.92,1.92,0,0,1,1.61-2.12h.12Z" transform="translate(-0.16 -0.13)"/><path d="M545.08,259.12l-.65.65c-12.8,1.1-81.5,6.86-117,7.88l-1.35,0a1.9,1.9,0,0,0-.54-3.73c37.58-.93,116.94-7.77,120.55-8.08a1.92,1.92,0,0,0-1.61,2.12A2,2,0,0,0,545.08,259.12Z" transform="translate(-0.16 -0.13)"/><path d="M539.27,234.11a7.8,7.8,0,1,1-7.8,7.8A7.81,7.81,0,0,1,539.27,234.11Zm4,7.8a4,4,0,1,0-4,4A4,4,0,0,0,543.26,241.92Z" transform="translate(-0.16 -0.13)"/><circle class="cls-21" cx="539.11" cy="241.79" r="3.99"/><path d="M495.2,237.51a7.8,7.8,0,1,1-7.79,7.8A7.81,7.81,0,0,1,495.2,237.51Zm4,7.8a4,4,0,1,0-4,4A4,4,0,0,0,499.19,245.32Z" transform="translate(-0.16 -0.13)"/><circle class="cls-21" cx="495.05" cy="245.18" r="3.99"/><path d="M449.36,237.51a7.8,7.8,0,1,1-7.8,7.8A7.81,7.81,0,0,1,449.36,237.51Zm4,7.8a4,4,0,1,0-4,4A4,4,0,0,0,453.36,245.32Z" transform="translate(-0.16 -0.13)"/><ellipse class="cls-21" cx="449.2" cy="245.18" rx="3.99" ry="3.99"/><path d="M436.29,330.48V382a1.91,1.91,0,0,1-3.81,0V327.25a1.9,1.9,0,0,0,1,1.67Z" transform="translate(-0.16 -0.13)"/><path d="M436.29,326.12v4.35l-2.83-1.56a1.91,1.91,0,1,1,1.85-3.33Z" transform="translate(-0.16 -0.13)"/><path class="cls-19" d="M432.48,349.7v21.47H430.8a5.82,5.82,0,0,0-5.81-5.81,5.7,5.7,0,0,0-3.87,1.49l.24-12.61a5.8,5.8,0,0,0,9.44-4.53Z" transform="translate(-0.16 -0.13)"/><path class="cls-19" d="M432.48,327.25V349.7H430.8a5.82,5.82,0,0,0-5.81-5.81,5.71,5.71,0,0,0-3.47,1.16l.26-13.89a5.75,5.75,0,0,0,3.21,1,5.82,5.82,0,0,0,5.81-5.81h1.68Z" transform="translate(-0.16 -0.13)"/><path class="cls-19" d="M432.48,314.69v11.63H430.8a5.82,5.82,0,0,0-5.81-5.81,5.71,5.71,0,0,0-3,.87l1-53.39.65-.08v19.63Z" transform="translate(-0.16 -0.13)"/><path d="M425,320.51a5.81,5.81,0,0,1,0,11.62,5.75,5.75,0,0,1-3.21-1l.18-9.79A5.71,5.71,0,0,1,425,320.51Zm2,5.81a2,2,0,1,0-2,2A2,2,0,0,0,427,326.32Z" transform="translate(-0.16 -0.13)"/><path d="M425,343.89a5.81,5.81,0,1,1-3.63,10.34l.16-9.18A5.71,5.71,0,0,1,425,343.89Zm2,5.81a2,2,0,1,0-2,2A2,2,0,0,0,427,349.7Z" transform="translate(-0.16 -0.13)"/><path d="M425,365.36a5.82,5.82,0,1,1-5.54,7.59,1.9,1.9,0,0,0,1.59-1.84l.08-4.27A5.7,5.7,0,0,1,425,365.36Zm2,5.81a2,2,0,1,0-2,2A2,2,0,0,0,427,371.17Z" transform="translate(-0.16 -0.13)"/><path d="M426.58,23a1.92,1.92,0,0,1,.82,1.6l-3.55,193.52-1.54,0a1.91,1.91,0,0,0-1.9,1.92H420l3.58-195.52a1.9,1.9,0,0,1,1.93-1.88A1.94,1.94,0,0,1,426.58,23Z" transform="translate(-0.16 -0.13)"/><path d="M427.39,265.59a1.91,1.91,0,0,1-1.34,2,1.45,1.45,0,0,1-.35.08l-2.11.22v-3.83l1.71-.18h.21A1.91,1.91,0,0,1,427.39,265.59Z" transform="translate(-0.16 -0.13)"/><path class="cls-21" d="M425,324.32a2,2,0,1,1-2,2A2,2,0,0,1,425,324.32Z" transform="translate(-0.16 -0.13)"/><path class="cls-21" d="M425,347.7a2,2,0,1,1-2,2A2,2,0,0,1,425,347.7Z" transform="translate(-0.16 -0.13)"/><path class="cls-21" d="M425,369.17a2,2,0,1,1-2,2A2,2,0,0,1,425,369.17Z" transform="translate(-0.16 -0.13)"/><path d="M425.45,263.89h-.15l-1.71.18v-.14Z" transform="translate(-0.16 -0.13)"/><path d="M423.85,218.13l-.07,3.82h-1.47a1.91,1.91,0,0,1,0-3.81Z" transform="translate(-0.16 -0.13)"/><path d="M423.78,222l-.1,5.71-1.37,0a1.91,1.91,0,0,0-1.89,1.72h-.58l.17-9.32h.4a1.91,1.91,0,0,0,1.91,1.89h1.47Z" transform="translate(-0.16 -0.13)"/><path d="M423.68,227.66l-.07,3.82h-1.3a1.91,1.91,0,0,1-1.91-1.89,1.48,1.48,0,0,1,0-.21,1.91,1.91,0,0,1,1.89-1.72Z" transform="translate(-0.16 -0.13)"/><path d="M423.61,231.48l-.6,32.66-2.13.23a1.88,1.88,0,0,0-1.7,1.89h0l.68-36.87h.58a1.48,1.48,0,0,0,0,.21,1.91,1.91,0,0,0,1.91,1.89h1.3Z" transform="translate(-0.16 -0.13)"/><polygon points="423.43 263.95 423.43 267.78 422.78 267.85 422.85 264.01 423.43 263.95"/><path d="M423,264.14l-.07,3.84-1.66.17h-.21a1.9,1.9,0,0,1-1.89-1.7,1.54,1.54,0,0,1,0-.21,1.88,1.88,0,0,1,1.7-1.89Z" transform="translate(-0.16 -0.13)"/><path d="M422.94,268l-1,53.39a5.77,5.77,0,0,0-2.78,4.94l-1.12,0,1.11-60h0a1.54,1.54,0,0,0,0,.21,1.9,1.9,0,0,0,1.89,1.7h.21Z" transform="translate(-0.16 -0.13)"/><path d="M422,321.38l-.18,9.79a5.79,5.79,0,0,1,.18-9.79Z" transform="translate(-0.16 -0.13)"/><path d="M421.78,331.16l-.26,13.89a5.75,5.75,0,0,0-2.34,4.65l-1.55,0,.43-23.37,1.12,0A5.79,5.79,0,0,0,421.78,331.16Z" transform="translate(-0.16 -0.13)"/><path d="M421.52,345.05l-.16,9.18a5.78,5.78,0,0,1,.16-9.18Z" transform="translate(-0.16 -0.13)"/><path d="M421.36,354.23l-.24,12.61a5.81,5.81,0,0,0-1.67,6.11l-.31,0h0a1.91,1.91,0,0,1-1.87-1.94l.39-21.36,1.55,0A5.76,5.76,0,0,0,421.36,354.23Z" transform="translate(-0.16 -0.13)"/><path d="M421.12,366.85l-.08,4.27a1.9,1.9,0,0,1-1.59,1.84,5.81,5.81,0,0,1,1.67-6.11Z" transform="translate(-0.16 -0.13)"/><path d="M408.76,118.7a7.8,7.8,0,1,1-7.79,7.8A7.81,7.81,0,0,1,408.76,118.7Zm4,7.8a4,4,0,1,0-4,4A4,4,0,0,0,412.75,126.5Z" transform="translate(-0.16 -0.13)"/><path d="M408.76,166.34a7.8,7.8,0,1,1-7.79,7.8A7.81,7.81,0,0,1,408.76,166.34Zm4,7.8a4,4,0,1,0-4,4A4,4,0,0,0,412.75,174.14Z" transform="translate(-0.16 -0.13)"/><path d="M408.76,76.34A6.67,6.67,0,1,1,402.09,83,6.69,6.69,0,0,1,408.76,76.34ZM411.62,83a2.86,2.86,0,1,0-2.87,2.86A2.87,2.87,0,0,0,411.62,83Z" transform="translate(-0.16 -0.13)"/><path d="M408.76,18.63a5.95,5.95,0,1,1-5.95,5.95A6,6,0,0,1,408.76,18.63Zm2.14,5.95a2.14,2.14,0,1,0-2.14,2.13A2.15,2.15,0,0,0,410.9,24.58Z" transform="translate(-0.16 -0.13)"/><path d="M408.76,40.87a5.95,5.95,0,1,1-5.95,5.95A6,6,0,0,1,408.76,40.87Zm2.14,5.95a2.14,2.14,0,1,0-2.14,2.13A2.14,2.14,0,0,0,410.9,46.81Z" transform="translate(-0.16 -0.13)"/><path class="cls-21" d="M408.76,122.51a4,4,0,1,1-4,4A4,4,0,0,1,408.76,122.51Z" transform="translate(-0.16 -0.13)"/><path class="cls-21" d="M408.76,170.15a4,4,0,1,1-4,4A4,4,0,0,1,408.76,170.15Z" transform="translate(-0.16 -0.13)"/><path class="cls-21" d="M408.76,80.15A2.86,2.86,0,1,1,405.9,83,2.87,2.87,0,0,1,408.76,80.15Z" transform="translate(-0.16 -0.13)"/><path class="cls-21" d="M408.76,22.44a2.13,2.13,0,1,1-2.13,2.13A2.15,2.15,0,0,1,408.76,22.44Z" transform="translate(-0.16 -0.13)"/><path class="cls-21" d="M408.76,44.68a2.13,2.13,0,1,1-2.13,2.13A2.14,2.14,0,0,1,408.76,44.68Z" transform="translate(-0.16 -0.13)"/><path d="M393.42,227.2A8.81,8.81,0,1,1,384.6,236,8.82,8.82,0,0,1,393.42,227.2Zm5,8.81a5,5,0,1,0-5,5A5,5,0,0,0,398.42,236Z" transform="translate(-0.16 -0.13)"/><path class="cls-21" d="M393.42,231a5,5,0,1,1-5,5A5,5,0,0,1,393.42,231Z" transform="translate(-0.16 -0.13)"/><path d="M378.18,118.7a7.8,7.8,0,1,1-7.8,7.8A7.81,7.81,0,0,1,378.18,118.7Zm4,7.8a4,4,0,1,0-4,4A4,4,0,0,0,382.16,126.5Z" transform="translate(-0.16 -0.13)"/><path d="M378.18,166.34a7.8,7.8,0,1,1-7.8,7.8A7.81,7.81,0,0,1,378.18,166.34Zm4,7.8a4,4,0,1,0-4,4A4,4,0,0,0,382.16,174.14Z" transform="translate(-0.16 -0.13)"/><path d="M378.18,76.34A6.67,6.67,0,1,1,371.5,83,6.68,6.68,0,0,1,378.18,76.34ZM381,83a2.86,2.86,0,1,0-2.86,2.86A2.87,2.87,0,0,0,381,83Z" transform="translate(-0.16 -0.13)"/><path d="M378.18,18.63a5.95,5.95,0,1,1-5.95,5.95A6,6,0,0,1,378.18,18.63Zm2.13,5.95a2.13,2.13,0,1,0-2.13,2.13A2.14,2.14,0,0,0,380.31,24.58Z" transform="translate(-0.16 -0.13)"/><path d="M378.18,40.87a5.95,5.95,0,1,1-5.95,5.95A6,6,0,0,1,378.18,40.87Zm2.13,5.95a2.13,2.13,0,1,0-2.13,2.13A2.14,2.14,0,0,0,380.31,46.81Z" transform="translate(-0.16 -0.13)"/><path class="cls-21" d="M378.18,122.51a4,4,0,1,1-4,4A4,4,0,0,1,378.18,122.51Z" transform="translate(-0.16 -0.13)"/><path class="cls-21" d="M378.18,170.15a4,4,0,1,1-4,4A4,4,0,0,1,378.18,170.15Z" transform="translate(-0.16 -0.13)"/><path class="cls-21" d="M378.18,80.15A2.86,2.86,0,1,1,375.31,83,2.87,2.87,0,0,1,378.18,80.15Z" transform="translate(-0.16 -0.13)"/><path class="cls-21" d="M378.18,22.44A2.13,2.13,0,1,1,376,24.58,2.14,2.14,0,0,1,378.18,22.44Z" transform="translate(-0.16 -0.13)"/><path class="cls-21" d="M378.18,44.68A2.13,2.13,0,1,1,376,46.81,2.14,2.14,0,0,1,378.18,44.68Z" transform="translate(-0.16 -0.13)"/><path d="M369.7,371a1.91,1.91,0,0,1-1.87,1.94h0a1.58,1.58,0,0,1-.3,0,5.81,5.81,0,0,0-1.68-6.12l-.23-12.61a5.79,5.79,0,0,0,2.18-4.53l1.54,0Z" transform="translate(-0.16 -0.13)"/><path d="M368.88,326.3l.43,23.37-1.54,0a5.76,5.76,0,0,0-2.35-4.65l-.26-13.89a5.77,5.77,0,0,0,2.61-4.84Z" transform="translate(-0.16 -0.13)"/><path d="M367.78,266.26l1.11,60-1.11,0a5.76,5.76,0,0,0-2.79-4.94L364,268l1.66.17h.21a1.89,1.89,0,0,0,1.89-1.7,1.54,1.54,0,0,0,0-.21Z" transform="translate(-0.16 -0.13)"/><path d="M367.11,229.6l.67,36.66h0a1.88,1.88,0,0,0-1.7-1.89l-2.13-.23-.6-32.67,1.28,0h0a1.91,1.91,0,0,0,1.91-1.89Z" transform="translate(-0.16 -0.13)"/><path d="M367.76,266.26a1.54,1.54,0,0,1,0,.21,1.89,1.89,0,0,1-1.89,1.7h-.21L364,268l-.07-3.84,2.13.23A1.88,1.88,0,0,1,367.76,266.26Z" transform="translate(-0.16 -0.13)"/><path d="M367.77,371.17a5.81,5.81,0,0,1-.28,1.78,1.9,1.9,0,0,1-1.6-1.84l-.08-4.28A5.78,5.78,0,0,1,367.77,371.17Z" transform="translate(-0.16 -0.13)"/><path d="M366.93,220.07l.18,9.53h-.58a1.91,1.91,0,0,0-1.9-1.92l-1.37,0-.1-5.72,1.45,0h0a1.91,1.91,0,0,0,1.91-1.89Z" transform="translate(-0.16 -0.13)"/><path d="M363.35,24.55l3.58,195.52h-.4a1.91,1.91,0,0,0-1.9-1.92l-1.54,0L359.53,24.61a1.92,1.92,0,0,1,.82-1.6,1.94,1.94,0,0,1,1.06-.34h0A1.91,1.91,0,0,1,363.35,24.55Z" transform="translate(-0.16 -0.13)"/><path d="M365.89,371.11a1.9,1.9,0,0,0,1.6,1.84,5.81,5.81,0,1,1-5.54-7.59,5.75,5.75,0,0,1,3.86,1.48Zm-1.93.06a2,2,0,1,0-2,2A2,2,0,0,0,364,371.17Z" transform="translate(-0.16 -0.13)"/><path d="M364.63,227.68a1.91,1.91,0,0,1,0,3.81h0l-1.28,0-.07-3.81Z" transform="translate(-0.16 -0.13)"/><path d="M364.63,218.15a1.91,1.91,0,0,1,0,3.81h0l-1.45,0-.07-3.81Z" transform="translate(-0.16 -0.13)"/><path d="M365,321.38a5.78,5.78,0,0,1,.18,9.79Z" transform="translate(-0.16 -0.13)"/><path d="M365.41,345.05a5.78,5.78,0,0,1,.17,9.18Z" transform="translate(-0.16 -0.13)"/><path class="cls-19" d="M365.58,354.23l.23,12.61a5.75,5.75,0,0,0-3.86-1.48,5.82,5.82,0,0,0-5.81,5.81h-1.69V349.7h1.69a5.8,5.8,0,0,0,9.44,4.53Z" transform="translate(-0.16 -0.13)"/><path d="M365.41,345.05l.17,9.18A5.81,5.81,0,1,1,362,343.89,5.68,5.68,0,0,1,365.41,345.05ZM364,349.7a2,2,0,1,0-2,2A2,2,0,0,0,364,349.7Z" transform="translate(-0.16 -0.13)"/><path class="cls-19" d="M365.16,331.16l.26,13.89a5.68,5.68,0,0,0-3.46-1.16,5.82,5.82,0,0,0-5.81,5.81h-1.69V326.32h1.69a5.81,5.81,0,0,0,5.81,5.81A5.71,5.71,0,0,0,365.16,331.16Z" transform="translate(-0.16 -0.13)"/><path d="M365,321.38l.18,9.79a5.71,5.71,0,0,1-3.2,1,5.81,5.81,0,1,1,0-11.62A5.67,5.67,0,0,1,365,321.38Zm-1,4.94a2,2,0,1,0-2,2A2,2,0,0,0,364,326.32Z" transform="translate(-0.16 -0.13)"/><path class="cls-19" d="M364,268l1,53.39a5.67,5.67,0,0,0-3-.87,5.82,5.82,0,0,0-5.81,5.81h-1.69V314.69l8.89-27.15V267.91Z" transform="translate(-0.16 -0.13)"/><polygon points="363.77 264.01 363.83 267.85 363.19 267.78 363.19 263.95 363.77 264.01"/><path class="cls-19" d="M363.33,231.47l.6,32.67-.58-.07v-.14l-1.86,0h0c-37.58-.93-116.94-7.77-120.56-8.08h-.06a59,59,0,0,1-10.7-2.58c-5.13-1.75-10.89-4.6-14.33-9.06a1.91,1.91,0,0,0-2.68-.35,1.89,1.89,0,0,0-.73,1.31l1-34.74h0a1.9,1.9,0,0,0,.9,1.62c.89.56,21.9,13.69,32.09,16.12C256,230.4,350.57,231.36,363.33,231.47Zm-18,13.84a7.8,7.8,0,1,0-7.8,7.79A7.81,7.81,0,0,0,345.38,245.32Zm-45.84,0a7.8,7.8,0,1,0-7.8,7.79A7.81,7.81,0,0,0,299.54,245.32Zm-44.07-3.4a7.8,7.8,0,1,0-7.8,7.8A7.81,7.81,0,0,0,255.47,241.92Z" transform="translate(-0.16 -0.13)"/><path class="cls-21" d="M362,324.32a2,2,0,1,1-2,2A2,2,0,0,1,362,324.32Z" transform="translate(-0.16 -0.13)"/><path class="cls-21" d="M362,347.7a2,2,0,1,1-2,2A2,2,0,0,1,362,347.7Z" transform="translate(-0.16 -0.13)"/><path class="cls-21" d="M362,369.17a2,2,0,1,1-2,2A2,2,0,0,1,362,369.17Z" transform="translate(-0.16 -0.13)"/><path d="M363.35,267.91v19.63l-8.89,27.15v12.56a1.91,1.91,0,0,0-2.83-1.67l-1,.54v-8.71l-33.71,16.18-.74-.26c-1.63-.57-40-14-47.84-21.37-7.63-7.16-28.37-33.38-29.25-34.49l-.41-.52V259.34c1,.15,1.55.23,1.68.25h.23l1.91.17v15.85c3,3.78,21.6,27.13,28.46,33.56,5.69,5.34,32,15.44,45.74,20.29L351,313l8.54-26.1V267.65l1.35,0a1.45,1.45,0,0,0,.35.08Z" transform="translate(-0.16 -0.13)"/><path d="M363.35,264.08v3.83l-2.11-.22a1.45,1.45,0,0,1-.35-.08,1.9,1.9,0,0,1,.55-3.73h.21Z" transform="translate(-0.16 -0.13)"/><path d="M363.35,263.93v.14l-1.7-.18h-.16Z" transform="translate(-0.16 -0.13)"/><path d="M363.26,227.66l.07,3.81c-12.76-.11-107.35-1.08-117-3.36-10.19-2.43-31.2-15.56-32.09-16.12a1.9,1.9,0,0,1-.9-1.62,1.92,1.92,0,0,1,.29-1,1.9,1.9,0,0,1,2.63-.6c.21.13,21.37,13.35,30.95,15.63C254.89,226.22,325.66,227.32,363.26,227.66Z" transform="translate(-0.16 -0.13)"/><path class="cls-19" d="M363.16,221.95l.1,5.72c-37.6-.34-108.37-1.44-116-3.27-9.58-2.28-30.74-15.49-30.95-15.63a1.9,1.9,0,0,0-2.63.6,1.92,1.92,0,0,0-.29,1h0l.12-4.46,3.51-4.77H217l-.06.29-.23,1.22,1,.71c.74.52,18.36,12.79,28.6,15.23C255.93,220.86,349.75,221.82,363.16,221.95Z" transform="translate(-0.16 -0.13)"/><path d="M363.09,218.13l.07,3.81c-13.41-.12-107.23-1.09-116.8-3.36-10.24-2.44-27.86-14.7-28.6-15.23l-1-.71.23-1.22.06-.29c4-20.09,15.64-43.81,16.15-44.82l.23-.35c15.59-19.25,28.91-49.3,37.33-71.11,9.15-23.7,14.64-43,14.7-43.23a1.9,1.9,0,0,1,1.83-1.39,2,2,0,0,1,.52.08,1.91,1.91,0,0,1,1.31,2.35c-.06.19-5.6,19.7-14.82,43.56-8.5,22-21.94,52.33-37.79,72-1.1,2.25-11.67,24.24-15.54,42.73,3.92,2.65,18.07,12,26.27,13.93C254.88,216.69,325.45,217.79,363.09,218.13Z" transform="translate(-0.16 -0.13)"/><path class="cls-18" d="M359.53,24.61l3.55,193.52c-37.64-.34-108.21-1.45-115.86-3.27-8.19-2-22.35-11.28-26.27-13.93,3.87-18.49,14.44-40.48,15.54-42.73,15.84-19.64,29.29-50,37.79-72C283.5,62.38,289,42.87,289.1,42.68a1.91,1.91,0,0,0-1.31-2.35,2,2,0,0,0-.52-.08c14.54-1,27.45-1.68,35.65-1.7,3.51-1.6,28.33-12.84,37.39-15.63l0,.09A1.92,1.92,0,0,0,359.53,24.61Z" transform="translate(-0.16 -0.13)"/><path d="M360.89,267.61l-1.35,0c-35.53-1-104.23-6.78-117-7.88l-1.91-.17a1.91,1.91,0,0,0,.29-3.79c3.62.3,83,7.15,120.56,8.08a1.9,1.9,0,0,0-.55,3.73Z" transform="translate(-0.16 -0.13)"/><path d="M354.46,371.17V382a1.91,1.91,0,1,1-3.81,0V330.48l2.83-1.56a1.89,1.89,0,0,0,1-1.67v43.92Z" transform="translate(-0.16 -0.13)"/><path d="M354.22,326.32a1.91,1.91,0,0,1,.24.92,1.89,1.89,0,0,1-1,1.67l-2.83,1.56v-4.35l1-.54A1.91,1.91,0,0,1,354.22,326.32Z" transform="translate(-0.16 -0.13)"/><path d="M350.65,326.12v4.35L317.11,349l-.85-.34c-4.94-2-48.39-19.93-53.25-24.14s-33.94-40.94-35.18-42.5l-.41-.51V256.31c1.31.5,2.59.91,3.81,1.28v22.63c10.52,13.27,30.66,38.33,34.27,41.47,3.28,2.83,32.18,15.25,51.36,23.14Z" transform="translate(-0.16 -0.13)"/><path class="cls-20" d="M350.65,317.41v8.71l-33.79,18.7c-19.18-7.89-48.08-20.31-51.36-23.14-3.61-3.13-23.75-28.19-34.27-41.47V257.59a65.29,65.29,0,0,0,7.46,1.75v17.61l.41.52c.88,1.11,21.62,27.33,29.25,34.49,7.83,7.34,46.21,20.8,47.84,21.37l.74.26Z" transform="translate(-0.16 -0.13)"/><path d="M337.57,237.51a7.8,7.8,0,1,1-7.8,7.8A7.81,7.81,0,0,1,337.57,237.51Zm4,7.8a4,4,0,1,0-4,4A4,4,0,0,0,341.57,245.32Z" transform="translate(-0.16 -0.13)"/><ellipse class="cls-21" cx="337.41" cy="245.18" rx="3.99" ry="3.99"/><path d="M291.73,237.51a7.8,7.8,0,1,1-7.8,7.8A7.81,7.81,0,0,1,291.73,237.51Zm4,7.8a4,4,0,1,0-4,4A4,4,0,0,0,295.73,245.32Z" transform="translate(-0.16 -0.13)"/><ellipse class="cls-21" cx="291.58" cy="245.18" rx="3.99" ry="3.99"/><path class="cls-18" d="M287.27,40.25a1.9,1.9,0,0,0-1.83,1.39c-.06.19-5.55,19.53-14.7,43.23C262.31,106.68,249,136.73,233.4,156l-.23.35c-.5,1-12.17,24.72-16.15,44.82H217l.2-4.42H190.6l0-1.89c0-.15,0-2.17-.06-5.62,1,.1,1.59.16,1.66.17a1.91,1.91,0,1,0,.47-3.78s-.8-.1-2.17-.22c-.34-27.26-1.63-105.17-5.36-123.64l2-.75a1.91,1.91,0,1,0-1.34-3.57l-.43.16,8.44-9.41.73-.07C195.24,48,247.38,43,287.27,40.25Z" transform="translate(-0.16 -0.13)"/><path d="M247.67,234.11a7.8,7.8,0,1,1-7.8,7.8A7.81,7.81,0,0,1,247.67,234.11Zm4,7.8a4,4,0,1,0-4,4A4,4,0,0,0,251.66,241.92Z" transform="translate(-0.16 -0.13)"/><circle class="cls-21" cx="247.51" cy="241.79" r="3.99"/><path d="M240.88,255.81a1.91,1.91,0,0,1-.29,3.79h-.23c-.12,0-.72-.1-1.68-.25v-3.73l2.07.18h.12Z" transform="translate(-0.16 -0.13)"/><path d="M240.86,255.81h-.1l-2.07-.18v3.73a65.29,65.29,0,0,1-7.46-1.75v-2.44a1.91,1.91,0,0,0-1.16-1.75l.06-.18a59,59,0,0,0,10.7,2.58Z" transform="translate(-0.16 -0.13)"/><path d="M231.23,255.15v2.44c-1.22-.36-2.51-.78-3.81-1.28v-1.16a1.91,1.91,0,0,1,3.81,0Z" transform="translate(-0.16 -0.13)"/><path d="M230.13,253.22l-.06.18a1.9,1.9,0,0,0-2.65,1.75v1.16c-5.28-2-11-5.08-14.64-9.83a1.88,1.88,0,0,1-.4-1.14c0-.09,0-.16,0-.23a1.89,1.89,0,0,1,.73-1.31,1.91,1.91,0,0,1,2.68.35C219.24,248.61,225,251.46,230.13,253.22Z" transform="translate(-0.16 -0.13)"/><path d="M192.64,185.6a1.91,1.91,0,1,1-.47,3.78c-.07,0-.64-.08-1.66-.17,0-1.12,0-2.41,0-3.83C191.84,185.5,192.61,185.6,192.64,185.6Z" transform="translate(-0.16 -0.13)"/><path d="M190.47,185.38c0,1.42,0,2.71,0,3.83-11.48-1.09-79.25-5.82-106.07,30.56-20.69,28.06-19.43,58-14.73,78.19,5.35,23,18.32,45.93,33.84,60l.37.34.16.47c.15.45,1.4,4.46-.79,7.26a6.58,6.58,0,0,1-5.51,2.28c-.34,0-.7,0-1.06,0-4.15-.32-27.18-11.87-50.35-36.27C26.32,310.78,2,275.18.33,225.68c-1.48-43.49,15.51-76.95,53.45-105.28C86.84,95.72,131,78.06,185.35,57.57l-1,1.14.3,1c.16.55.32,1.23.49,2-53.31,20.12-96.72,37.58-129,61.71C19.21,151,2.72,183.41,4.15,225.56c1.65,48.3,25.38,83.08,45,103.76,22.16,23.34,44.66,34.84,47.89,35.1,1.13.09,2.62,0,3.26-.79s.48-2.43.3-3.27C84.7,345.81,71.48,322.28,66,298.82c-4.89-21-6.18-52.09,15.37-81.32,12.68-17.19,36-28.15,67.4-31.7A214.54,214.54,0,0,1,190.47,185.38Z" transform="translate(-0.16 -0.13)"/><path class="cls-17" d="M185.11,61.73c3.73,18.47,5,96.38,5.36,123.64a214.54,214.54,0,0,0-41.69.42c-31.41,3.54-54.72,14.51-67.4,31.7C59.83,246.73,61.12,277.85,66,298.82c5.47,23.47,18.69,47,34.59,61.54.18.84.37,2.41-.3,3.27s-2.12.88-3.26.79c-3.23-.26-25.73-11.76-47.89-35.1-19.63-20.68-43.36-55.46-45-103.76C2.72,183.41,19.21,151,56.07,123.45,88.39,99.31,131.8,81.86,185.11,61.73Z" transform="translate(-0.16 -0.13)"/><path d="M188.23,58.52A1.91,1.91,0,0,1,187.12,61l-2,.75c-.16-.77-.32-1.45-.49-2l-.3-1,1-1.14.43-.16A1.92,1.92,0,0,1,188.23,58.52Z" transform="translate(-0.16 -0.13)"/><path class="cls-22" d="M393.52,351.07,344,390.13l-31.44,58.12-62.41-39.54-37.75-78.48-.31,16.7,32.18,71.14L317,464.13l33.68-66.95s23.47-14.6,41.21-20.19c0,0,33.54,12.84,43.27,19.34l35.74,69.47,71.8-47.72,32.71-72.73v-17l-38.11,80.22L474.75,448,443,390.13Z" transform="translate(-0.16 -0.13)"/><path class="cls-20" d="M421.91,220v9.6s106.95-.46,117.36-3.17,32.4-16,32.4-16v-3.82l-3.57-4.76S548,215.55,540.27,216.69,421.91,220,421.91,220Z" transform="translate(-0.16 -0.13)"/><path class="cls-20" d="M364.82,220v9.6s-106.95-.46-117.36-3.17-32.4-16-32.4-16v-3.82l3.57-4.76s20.07,13.75,27.82,14.89S364.82,220,364.82,220Z" transform="translate(-0.16 -0.13)"/><polygon class="cls-23" points="393.36 350.94 393.36 2.54 386.38 7.93 373.98 9.52 361.3 25.24 367.99 370.94 393.36 350.94"/><path class="cls-23" d="M505,59.2s39.45,79.39,59.24,95.12c0,0,14,33.15,13.55,40.39H566.44s-10.91-33.59-14.32-37.39S511.76,93.5,505,59.2Z" transform="translate(-0.16 -0.13)"/><path class="cls-23" d="M281,59.2s-39.45,79.39-59.24,95.12c0,0-14,33.15-13.55,40.39h11.34s10.91-33.59,14.32-37.39S274.27,93.5,281,59.2Z" transform="translate(-0.16 -0.13)"/><path class="cls-24" d="M393.52,351.07v25.78s-40.66,16.67-42.86,20.33S317,464.13,317,464.13l-72.73-46.05-32.71-72.73.5-18.1,37.75,81.22,63.52,39.78L344,390.13Z" transform="translate(-0.16 -0.13)"/><polygon class="cls-23" points="192.32 194.68 220.31 194.68 234.05 158.43 191.84 160.38 192.32 194.68"/><path class="cls-23" d="M186.45,59.2,194.71,50s9.75,85.55,4.51,144.72l-6.73.1S191.64,71.9,186.45,59.2Z" transform="translate(-0.16 -0.13)"/><polygon class="cls-23" points="594.99 194.68 567.01 194.68 553.26 158.43 595.48 160.38 594.99 194.68"/><path class="cls-23" d="M601.19,59.2,592.93,50s-9.75,85.55-4.51,144.72l6.73.1S596,71.9,601.19,59.2Z" transform="translate(-0.16 -0.13)"/><path class="cls-25" d="M235.93,257.69v20.89s28.7,35.77,33.55,38.41,47.4,19.9,47.4,19.9l35.68-17.62v-4.89l-36,17.31s-42.24-17.15-45.1-19.69-30.86-35.89-30.86-35.89V257.69Z" transform="translate(-0.16 -0.13)"/><path class="cls-25" d="M551.05,257.69v20.89s-28.7,35.77-33.55,38.41-47.4,19.9-47.4,19.9l-35.68-17.62v-4.89l36,17.31s42.24-17.15,45.1-19.69,30.86-35.89,30.86-35.89V257.69Z" transform="translate(-0.16 -0.13)"/><circle class="cls-26" cx="393.48" cy="235.61" r="6.63"/><circle class="cls-26" cx="408.89" cy="174.42" r="5.61"/><circle class="cls-26" cx="408.89" cy="126.38" r="5.61"/><circle class="cls-26" cx="408.89" cy="82.89" r="5.61"/><circle class="cls-26" cx="408.41" cy="47.16" r="5.13"/><circle class="cls-26" cx="408.41" cy="24.45" r="5.13"/><circle class="cls-26" cx="378.02" cy="174.42" r="5.61"/><circle class="cls-26" cx="378.02" cy="126.38" r="5.61"/><circle class="cls-26" cx="378.02" cy="82.89" r="5.61"/><circle class="cls-26" cx="377.54" cy="47.16" r="5.13"/><circle class="cls-26" cx="377.54" cy="24.45" r="5.13"/><path class="cls-27" d="M244.1,327.37l-13.8,23.22a105.69,105.69,0,0,0,17.57-22,9.23,9.23,0,0,0,1.56-3.88c0-.58-.1-1.29-.64-1.49s-1.07.19-1.49.56a38.55,38.55,0,0,0-5.2,5.59" transform="translate(-0.16 -0.13)"/><path class="cls-27" d="M254,330.52,233.91,356a307.65,307.65,0,0,0,24.27-25.56,40.44,40.44,0,0,0-9.82,4.58" transform="translate(-0.16 -0.13)"/><path class="cls-27" d="M302,359.38c-11.48,18.78-23.06,37.78-29.75,58.75l16.61-29.5c4.93-8.75,9.9-17.61,12.5-27.31" transform="translate(-0.16 -0.13)"/><path class="cls-27" d="M323,377c-5.29,8.77-10.65,17.67-13.43,27.53a1.81,1.81,0,0,0,0,1.24c.34.73,1.38.69,2.17.54l5.75-1.12a16,16,0,0,1-4.71,9.19c3.25-12.42,11-23.94,10.61-36.78a1.14,1.14,0,0,0-1.32,1.25" transform="translate(-0.16 -0.13)"/><path class="cls-27" d="M538,354.3l-22.73,32.76a59.85,59.85,0,0,0-5.87,9.73c1.29.87,2.92-.39,3.94-1.56a193.57,193.57,0,0,0,27-40.26l-1.45.4" transform="translate(-0.16 -0.13)"/><path class="cls-27" d="M541.67,368.94a176.65,176.65,0,0,1-33.82,38.76c-3,2.59-6.29,5.26-7.69,9a52.89,52.89,0,0,1,14.22-10.21,73.24,73.24,0,0,1-5.08,8.36,117.18,117.18,0,0,0,37.94-42.66l-3.38-1a52,52,0,0,0,4.52-8.67,20.18,20.18,0,0,0-6,5.05" transform="translate(-0.16 -0.13)"/><path class="cls-27" d="M444,350.43c.55,12.3,1.11,24.66,3.51,36.73q-1.32-23.57-3.14-47.12a6.4,6.4,0,0,0-.42,3.39" transform="translate(-0.16 -0.13)"/><path class="cls-27" d="M450.79,353.61a55.91,55.91,0,0,0,1.79,20.85c1.21-3.12.95-6.59.64-9.92q-.54-5.78-1.17-11.54c-.13-1.19-.54-2.68-1.73-2.83" transform="translate(-0.16 -0.13)"/><path class="cls-27" d="M402.58,278a52.46,52.46,0,0,0,13.81-17.12,124.23,124.23,0,0,0-17.84,20.39" transform="translate(-0.16 -0.13)"/><path class="cls-27" d="M397.36,298.52A49.27,49.27,0,0,0,415.25,276,34.61,34.61,0,0,0,397.69,297a29.31,29.31,0,0,1,8.08-4.45,2.09,2.09,0,0,1,1.5-.13c1.13.48.66,2.18,0,3.22l-6.06,9.73c-.86,1.38-1.76,3-1.31,4.56q7-6.52,13.47-13.58a9.82,9.82,0,0,0-6.69,2.6" transform="translate(-0.16 -0.13)"/><path class="cls-18" d="M380.17,188.18q-6.3,14.56-11.13,29.7c5.71-10.94,11.47-22,14.34-34l-3.31,4.27" transform="translate(-0.16 -0.13)"/><path class="cls-18" d="M380.08,189.64a1.5,1.5,0,0,0,0-3,1.5,1.5,0,0,0,0,3Z" transform="translate(-0.16 -0.13)"/><path class="cls-18" d="M382.7,202a161,161,0,0,0-1,22.81c1.85-1.11,2.54-3.42,2.92-5.54a41.62,41.62,0,0,0-.37-16.3" transform="translate(-0.16 -0.13)"/><path class="cls-27" d="M438.68,202.6c3.87-.31,7.44-2.11,10.84-4,17.33-9.56,33.22-22,51.85-28.72l-15.32,7.43c-2.27,1.1-5,3.29-3.86,5.56l2.28-.87-15.54,14.25,66.86-40.87A166.57,166.57,0,0,1,471,204.72l.57-7.35c-6.21,1.78-12.14,4.44-18.38,6.1s-13,2.25-19-.11" transform="translate(-0.16 -0.13)"/><path class="cls-27" d="M303.25,63.72c16.38,25.92,21.42,57.44,35.46,84.69a537.13,537.13,0,0,0-33-90.59l-.94,3.12" transform="translate(-0.16 -0.13)"/><path class="cls-27" d="M314.87,59.11c-2.88,31.66-5.74,63.79,0,95.05a927.91,927.91,0,0,0,3-101.65A7.38,7.38,0,0,0,316.82,59" transform="translate(-0.16 -0.13)"/><path class="cls-28" d="M597.7,82.92s155.85,45.3,164,125.55c5.24,51.78-13,109.26-71.77,155.94l-2.07,1.94-4.29-4.8L696,346.94s47.47-64,15-117.35-114.57-42.3-114.57-42.3l-2.14-1.69Z" transform="translate(-0.16 -0.13)"/><path class="cls-28" d="M189,82.92S33.16,128.21,25,208.47C19.79,260.26,38,317.73,96.8,364.41l2.07,1.94,4.29-4.8L90.7,346.94s-47.47-64-15-117.35,114.57-42.3,114.57-42.3l2.14-1.69Z" transform="translate(-0.16 -0.13)"/><path class="cls-29" d="M614.64,76c.36,4.28.69,8.73-.82,12.75-1.68,4.47-5.4,7.81-7.95,11.85-2.87,4.55-4.18,9.87-5.44,15.1.68-6,5.94-10.37,10.81-14s10.16-7.87,11-13.89A11.7,11.7,0,0,0,615.85,76" transform="translate(-0.16 -0.13)"/><path class="cls-29" d="M625.49,75.68c-.42,4.76,2.56,9.24,2.63,14,.1,6.82-5.51,12.2-10.64,16.7s-10.66,10-10.31,16.84c.41-3.82,4.11-6.5,7.81-7.51s7.64-.87,11.38-1.76a21.49,21.49,0,0,0,16-20.56c0-1.11-.5-2.56-1.6-2.47-2,3.28-3,7-5,10.31s-5.36,6.16-9.18,5.88c3.37-4.21,6-9.17,6.65-14.53s-1-11.14-4.93-14.79c-1.41-1.29-3.23-2.58-3.29-4.49" transform="translate(-0.16 -0.13)"/><path class="cls-29" d="M639.75,78.39a45.14,45.14,0,0,1,8.66,15.43c1.27,3.91,2,8.25.45,12.07-1.67,4.18-5.72,6.94-9.85,8.72-4.92,2.12-10.26,3.22-15.06,5.6-11.07,5.5-17.91,17.31-20.46,29.41s-1.41,24.62-.27,36.93l3.91-1a170.62,170.62,0,0,1,1.37-25.14c.86-7.06,2.16-14.42,6.53-20,3.68-4.74,9.13-7.72,13.83-11.44,3.8-3,7.25-6.61,11.71-8.51,5.47-2.33,11.73-1.77,17.49-3.27a25.07,25.07,0,0,0,11.89-7.08c2.52-2.69,4.47-6.1,4.58-9.79s-2-7.56-5.53-8.69c1.53,9.45-5.35,19.49-14.71,21.48.6-5,2.83-9.87,2.57-14.93-.44-8.77-8.1-15.44-15.9-19.46" transform="translate(-0.16 -0.13)"/><path class="cls-29" d="M683.87,98.58c3.43,5,2.09,12.23-1.77,17s-9.68,7.37-15.49,9.2-11.86,3-17.4,5.52a38.94,38.94,0,0,0-20.07,21.51,26,26,0,0,1-2.19,5.09c-1.16,1.8-2.87,3.16-4.26,4.78-3.28,3.81-4.67,8.9-5.2,13.9-.26,2.49-.29,5.17,1,7.29a6.67,6.67,0,0,0,8.65,2.18c-.4-10,4.08-19.75,10.86-27.08s15.68-12.4,25-16.06a63.24,63.24,0,0,1,8.89-2.86c7.51-1.74,15.36-1.52,22.88-3.19s15.2-5.88,17.84-13.12c1.29-3.53,1.23-7.39,1.16-11.15,0-1.34-.13-2.86-1.17-3.7a3.21,3.21,0,0,0-3.91.32,10.08,10.08,0,0,0-2.37,3.49c-3.62,7.25-9.26,14.67-17.31,15.54l4-16.86c.54-2.28,1.08-4.66.54-6.94-1.07-4.52-5.84-7-10.22-8.56a3.69,3.69,0,0,0-.23,3.44" transform="translate(-0.16 -0.13)"/><path class="cls-29" d="M718.68,122.29c1.58,5.51-1.24,11.59-5.7,15.2s-10.25,5.13-15.93,5.86-11.46.78-17.09,1.9c-17.61,3.49-32.43,18.28-36,35.88a9.53,9.53,0,0,0,0,4.91,3.78,3.78,0,0,0,3.7,2.73c2.14-.25,3.19-2.66,3.92-4.68,4.63-12.77,14.22-24.86,27.51-27.64,7.75-1.62,15.83.06,23.68-1,15.73-2.06,29-16.3,29.9-32.14a2,2,0,0,0-.28-1.43c-.73-.89-2.17-.08-2.86.84-3.72,4.93-3.68,12.9-9.21,15.65a27.62,27.62,0,0,0,.5-19.93" transform="translate(-0.16 -0.13)"/><path class="cls-29" d="M671.66,167.46c-.33-.49-1.09-.29-1.61,0-5.21,2.86-8,8.66-10.31,14.12-1,2.43-2.09,5-1.77,7.64a1.11,1.11,0,0,0,.23.64.94.94,0,0,0,.83.21c1.69-.25,2.37-2.28,2.82-3.93a33.83,33.83,0,0,1,10.68-16.75l-1.19-.39" transform="translate(-0.16 -0.13)"/><path class="cls-29" d="M676.63,172.47A26.26,26.26,0,0,0,665.45,192c2.84-1.52,4.49-4.57,5.7-7.56s2.19-6.17,4.3-8.6a28.35,28.35,0,0,1,2.13-2.1" transform="translate(-0.16 -0.13)"/><path class="cls-29" d="M670.05,188.46a9.79,9.79,0,0,0-1.2,5.79c2.42,2.17,6.47.27,8.16-2.51s2.1-6.18,3.74-9c2.52-4.31,7.52-6.53,12.38-7.66,13.06-3,27.24-.23,39.78-5,3.86-1.46,7.82-4.13,8.52-8.2l-15.76,5.64a2.29,2.29,0,0,1-1.19.2c-1-.2-1.24-1.69-.62-2.52a5.18,5.18,0,0,1,2.65-1.49,26.35,26.35,0,0,0,13.67-10.35,20.59,20.59,0,0,0,2.66-16.73c-.41-1.4-1.15-2.89-2.54-3.33s-3.15.59-3.94,2a14.91,14.91,0,0,0-1.27,4.57c-1.62,8.1-7.37,14.93-14.31,19.4s-15,6.81-23.11,8.53c-8.25,1.76-17.08,3.15-23.49,8.63" transform="translate(-0.16 -0.13)"/><path class="cls-29" d="M751.56,143l-7.84,13.37a1.84,1.84,0,0,0-.34,1.66c.54,1.09,2.18.18,3.38.34a2.41,2.41,0,0,1,1.78,2.68,7,7,0,0,1-1.47,3.19c-2.42,3.51-4.92,7.07-8.31,9.66-8,6.07-19,5.56-28.65,8.18a44.09,44.09,0,0,0-21.83,13.79,7.6,7.6,0,0,0-2.19,4.29c-.09,1.63,1.2,3.43,2.83,3.25,1.25-.13,2.1-1.27,2.86-2.27a29.77,29.77,0,0,1,19.52-11.24c4.8-.63,9.68-.06,14.51-.37a41.14,41.14,0,0,0,34.71-25c1.06-2.6,1.5-6.26-1-7.62-1.54-.85-3.72-.39-4.94-1.67s-.48-3.65.63-5.18,2.53-3.17,2.24-5a3,3,0,0,0-5.87-.58" transform="translate(-0.16 -0.13)"/><path class="cls-29" d="M767,167.54a33.83,33.83,0,0,1-9.43,13.51c-2.16,1.87-4.8,4-4.69,6.81l5.29-2.82a2.07,2.07,0,0,1,1.39-.36c1.2.28.92,2.07.34,3.16-1.83,3.43-4.06,7-7.64,8.5-2.88,1.21-6.14.88-9.27.69-13.05-.8-26.58,1.37-37.77,8.14-2.21,1.34-4.46,3-5.2,5.52-.33,1.11-.1,2.62,1,2.94a2.74,2.74,0,0,0,1.9-.4l9.54-4.66c1.27,1.32-.17,3.45-1.62,4.56s-3.2,2.77-2.43,4.43c3.84-3.76,7.94-7.4,12.84-9.61a26.88,26.88,0,0,1,14.28-2.18c6.17.76,12,3.66,18.23,3.7a23.05,23.05,0,0,0,16.42-7.28,31.33,31.33,0,0,0,7.93-16.38,2.74,2.74,0,0,0,0-1.53c-.68-1.61-3.17-.67-4.31.65-2.64,3.07-4.64,7.5-8.65,8.06,1-5.48,5.51-9.51,8.36-14.28,2.32-3.87,3.25-9.51-.19-12.42a4.41,4.41,0,0,0-3.78-1.07,2.91,2.91,0,0,0-2.26,3" transform="translate(-0.16 -0.13)"/><path class="cls-29" d="M774.17,204.33a14.77,14.77,0,0,1-15.71,11.53,7.49,7.49,0,0,0-2.16,0,1.91,1.91,0,0,0-1.55,1.34,1.86,1.86,0,0,0,1.16,1.91,5.41,5.41,0,0,0,2.36.33l5.76-.1a7.73,7.73,0,0,0,2.27-.28,6.59,6.59,0,0,0,2-1.21c4.1-3.31,7-8.58,6.14-13.79" transform="translate(-0.16 -0.13)"/><path class="cls-29" d="M782.2,203.72c-6.08,4.84-4.67,15.58-11,20.08-4,2.84-9.59,1.95-14-.18s-8.29-5.33-12.86-7.1a23,23,0,0,0-20.34,2,43,43,0,0,0-7.85,7c-2.11,2.25-4.36,5.17-3.4,8.1a29.89,29.89,0,0,1,32.33-6c3.15,1.39,6,3.33,9.1,4.88,5.34,2.7,11.5,4.22,17.36,3s11.29-5.52,12.67-11.34l-8.42,3.24c.3-2.09,2-3.66,3.28-5.31a18.76,18.76,0,0,0,3.3-16.51" transform="translate(-0.16 -0.13)"/><path class="cls-29" d="M782.6,241.39a19.15,19.15,0,0,1-13.25,4.83,7,7,0,0,0-2.73.21,1.94,1.94,0,0,0-1.34,2.12c.4,1.46,2.74,1.44,3.4,2.8a2.08,2.08,0,0,1-1,2.54,5.06,5.06,0,0,1-2.94.41c-5.83-.51-11.11-3.49-16.15-6.45s-10.23-6-16-6.81-12.42,1.45-15,6.7a1.82,1.82,0,0,0-.23.79c0,1,1.38,1.35,2.4,1.28,5.72-.41,11.66-3.51,16.87-1.14,2.57,1.17,4.4,3.46,6.31,5.53,6.61,7.13,15.85,12.42,25.57,12.07a8,8,0,0,0-3.51-3.4c1.39-2.66,5.64-1.83,7.92-3.79,1.59-1.37,1.81-3.71,2.76-5.57,1.14-2.24,3.32-3.73,5.09-5.52s3.27-4.32,2.49-6.72" transform="translate(-0.16 -0.13)"/><path class="cls-29" d="M775.59,272.48c-3.28,5.2-8.71,9.71-14.85,9.44s-11.16-5.25-15.41-9.86-9.23-9.54-15.5-9.66c-3.23-.06-6.93,1.93-7,5.15,3.42-1.6,7.58-.14,10.45,2.3s4.83,5.76,7.22,8.68a37.72,37.72,0,0,0,23.41,13.31c1.66.25,4-.1,4.11-1.77.1-1.16-1-2.15-1-3.31a3.59,3.59,0,0,1,1.5-2.2,24,24,0,0,0,6.25-9.09" transform="translate(-0.16 -0.13)"/><path class="cls-29" d="M720.95,286.14a3.33,3.33,0,0,1,3.21-1.47,9.8,9.8,0,0,1,3.5,1.22c3.5,1.74,7.08,3.54,9.8,6.34,3.25,3.34,5,7.8,7.24,11.88,1.33,2.43,3,4.87,5.53,6s6.08.32,7-2.28a2.54,2.54,0,0,0-.19-2.37c-1-1.42-3.36-.69-4.94-1.47s-2-2.63-2.52-4.23A24.17,24.17,0,0,0,741.68,289a72.1,72.1,0,0,0-11.49-7.17c-1.84-1-3.85-2-5.92-1.69s-3.87,2.74-2.78,4.53" transform="translate(-0.16 -0.13)"/><path class="cls-29" d="M719.89,299.22a9.14,9.14,0,0,1,6.31,1.84,27.16,27.16,0,0,1,4.77,4.71,12.16,12.16,0,0,1,2.21,3.21c.42,1,.55,2.16.95,3.2a13,13,0,0,0,2.26,3.44l3.65,4.44c1.21,1.47,2.68,3.07,4.58,3a.85.85,0,0,0,.62-.2.89.89,0,0,0,.18-.58c.18-3.67-3.58-6.11-5.72-9.1-1.54-2.16-2.28-4.77-3.49-7.13a19.77,19.77,0,0,0-10.57-9.41,7,7,0,0,0-4.41-.46,3.16,3.16,0,0,0-2.37,3.36" transform="translate(-0.16 -0.13)"/><path class="cls-29" d="M714.89,311.83a10.79,10.79,0,0,1,7.74,6.59c1.12,2.92.89,6.17,1.47,9.24a17.74,17.74,0,0,0,3.22,7.31,4.14,4.14,0,0,0,2.32,1.79c1.52.3,2.87-.91,3.94-2a3.06,3.06,0,0,0,1.17-2.3,2.48,2.48,0,0,0-.48-1.08c-1.67-2.39-4.76-3.62-6-6.24-1.21-2.47-.46-5.4-.68-8.14a11.6,11.6,0,0,0-5.57-8.92,4,4,0,0,0-3.26-.63c-1.68.61-2.08,2.8-2,4.58" transform="translate(-0.16 -0.13)"/><path class="cls-29" d="M709.77,331.83a2.9,2.9,0,0,1,2.93,2.16,11.56,11.56,0,0,1,.24,3.93,20.93,20.93,0,0,0,1,6.92,5.14,5.14,0,0,0,1.14,2.13,2.09,2.09,0,0,0,2.23.55,2.82,2.82,0,0,0,1.31-2.39c.46-4-1.19-7.92-2.8-11.61-1-2.35-2.29-4.92-4.7-5.8a3.1,3.1,0,0,0-2.92.28,1.85,1.85,0,0,0-.3,2.68" transform="translate(-0.16 -0.13)"/><path class="cls-29" d="M712.48,322.14c.26-.4.88-.22,1.28,0a8.84,8.84,0,0,1,3.66,4.8c.26.83.61,1.89,1.47,1.92a1.27,1.27,0,0,0,1.17-1.07,3.24,3.24,0,0,0-.23-1.69,17,17,0,0,0-4.21-6.61,2.59,2.59,0,0,0-1.43-.84c-.56-.06-1.2.37-1.15.93" transform="translate(-0.16 -0.13)"/><path class="cls-29" d="M701.48,340.27c1.46.41,2.29,2,2.48,3.5s-.07,3,.07,4.54a4.26,4.26,0,0,0,2.23,3.7,1.59,1.59,0,0,0,1,.11c.65-.18,1-.87,1.21-1.5a8.07,8.07,0,0,0,.43-5.18c-.87-2.65-4-4.62-3.57-7.39" transform="translate(-0.16 -0.13)"/><path class="cls-29" d="M172.24,76c-.36,4.28-.69,8.73.82,12.75,1.68,4.47,5.4,7.81,7.95,11.85,2.87,4.55,4.18,9.87,5.44,15.1-.68-6-5.94-10.37-10.81-14s-10.16-7.87-11-13.89A11.7,11.7,0,0,1,171,76" transform="translate(-0.16 -0.13)"/><path class="cls-29" d="M161.38,75.68c.42,4.76-2.56,9.24-2.63,14-.1,6.82,5.51,12.2,10.64,16.7s10.66,10,10.31,16.84c-.41-3.82-4.11-6.5-7.81-7.51s-7.64-.87-11.38-1.76a21.49,21.49,0,0,1-16-20.56c0-1.11.5-2.56,1.6-2.47,2,3.28,3,7,5,10.31s5.36,6.16,9.18,5.88c-3.37-4.21-6-9.17-6.65-14.53s1-11.14,4.93-14.79c1.41-1.29,3.23-2.58,3.29-4.49" transform="translate(-0.16 -0.13)"/><path class="cls-29" d="M147.13,78.39a45.14,45.14,0,0,0-8.66,15.43c-1.27,3.91-2,8.25-.45,12.07,1.67,4.18,5.72,6.94,9.85,8.72,4.92,2.12,10.26,3.22,15.06,5.6,11.07,5.5,17.91,17.31,20.46,29.41s1.41,24.62.27,36.93l-3.91-1a170.62,170.62,0,0,0-1.37-25.14c-.86-7.06-2.16-14.42-6.53-20-3.68-4.74-9.13-7.72-13.83-11.44-3.8-3-7.25-6.61-11.71-8.51-5.47-2.33-11.73-1.77-17.49-3.27a25.07,25.07,0,0,1-11.89-7.08c-2.52-2.69-4.47-6.1-4.58-9.79s2-7.56,5.53-8.69c-1.53,9.45,5.35,19.49,14.71,21.48-.6-5-2.83-9.87-2.57-14.93.44-8.77,8.1-15.44,15.9-19.46" transform="translate(-0.16 -0.13)"/><path class="cls-29" d="M103,98.58c-3.43,5-2.09,12.23,1.77,17s9.68,7.37,15.49,9.2,11.86,3,17.4,5.52a38.94,38.94,0,0,1,20.07,21.51,26,26,0,0,0,2.19,5.09c1.16,1.8,2.87,3.16,4.26,4.78,3.28,3.81,4.67,8.9,5.2,13.9.26,2.49.29,5.17-1,7.29a6.67,6.67,0,0,1-8.65,2.18c.4-10-4.08-19.75-10.86-27.08s-15.68-12.4-25-16.06A63.24,63.24,0,0,0,115,139c-7.51-1.74-15.36-1.52-22.88-3.19s-15.2-5.88-17.84-13.12C73,119.16,73,115.3,73.12,111.54c0-1.34.13-2.86,1.17-3.7a3.21,3.21,0,0,1,3.91.32,10.08,10.08,0,0,1,2.37,3.49c3.62,7.25,9.26,14.67,17.31,15.54l-4-16.86c-.54-2.28-1.08-4.66-.54-6.94,1.07-4.52,5.84-7,10.22-8.56a3.69,3.69,0,0,1,.23,3.44" transform="translate(-0.16 -0.13)"/><path class="cls-29" d="M68.2,122.29c-1.58,5.51,1.24,11.59,5.7,15.2s10.25,5.13,15.93,5.86,11.46.78,17.09,1.9c17.61,3.49,32.43,18.28,36,35.88a9.53,9.53,0,0,1,0,4.91,3.78,3.78,0,0,1-3.7,2.73c-2.14-.25-3.19-2.66-3.92-4.68-4.63-12.77-14.22-24.86-27.51-27.64-7.75-1.62-15.83.06-23.68-1-15.73-2.06-29-16.3-29.9-32.14a2,2,0,0,1,.28-1.43c.73-.89,2.17-.08,2.86.84,3.72,4.93,3.68,12.9,9.21,15.65a27.62,27.62,0,0,1-.5-19.93" transform="translate(-0.16 -0.13)"/><path class="cls-29" d="M115.22,167.46c.33-.49,1.09-.29,1.61,0,5.21,2.86,8,8.66,10.31,14.12,1,2.43,2.09,5,1.77,7.64a1.11,1.11,0,0,1-.23.64.94.94,0,0,1-.83.21c-1.69-.25-2.37-2.28-2.82-3.93a33.83,33.83,0,0,0-10.68-16.75l1.19-.39" transform="translate(-0.16 -0.13)"/><path class="cls-29" d="M110.24,172.47A26.26,26.26,0,0,1,121.43,192c-2.84-1.52-4.49-4.57-5.7-7.56s-2.19-6.17-4.3-8.6a28.35,28.35,0,0,0-2.13-2.1" transform="translate(-0.16 -0.13)"/><path class="cls-29" d="M116.82,188.46a9.79,9.79,0,0,1,1.2,5.79c-2.42,2.17-6.47.27-8.16-2.51s-2.1-6.18-3.74-9c-2.52-4.31-7.52-6.53-12.38-7.66-13.06-3-27.24-.23-39.78-5-3.86-1.46-7.82-4.13-8.52-8.2l15.76,5.64a2.29,2.29,0,0,0,1.19.2c1-.2,1.24-1.69.62-2.52a5.18,5.18,0,0,0-2.65-1.49A26.35,26.35,0,0,1,46.7,153.4,20.59,20.59,0,0,1,44,136.67c.41-1.4,1.15-2.89,2.54-3.33s3.15.59,3.94,2a14.91,14.91,0,0,1,1.27,4.57c1.62,8.1,7.37,14.93,14.31,19.4s15,6.81,23.11,8.53c8.25,1.76,17.08,3.15,23.49,8.63" transform="translate(-0.16 -0.13)"/><path class="cls-29" d="M35.31,143l7.84,13.37A1.84,1.84,0,0,1,43.5,158c-.54,1.09-2.18.18-3.38.34A2.41,2.41,0,0,0,38.34,161a7,7,0,0,0,1.47,3.19c2.42,3.51,4.92,7.07,8.31,9.66,8,6.07,19,5.56,28.65,8.18a44.09,44.09,0,0,1,21.83,13.79,7.6,7.6,0,0,1,2.19,4.29c.09,1.63-1.2,3.43-2.83,3.25-1.25-.13-2.1-1.27-2.86-2.27a29.77,29.77,0,0,0-19.52-11.24c-4.8-.63-9.68-.06-14.51-.37a41.14,41.14,0,0,1-34.71-25c-1.06-2.6-1.5-6.26,1-7.62,1.54-.85,3.72-.39,4.94-1.67s.48-3.65-.63-5.18-2.53-3.17-2.24-5a3,3,0,0,1,5.87-.58" transform="translate(-0.16 -0.13)"/><path class="cls-29" d="M19.86,167.54a33.83,33.83,0,0,0,9.43,13.51c2.16,1.87,4.8,4,4.69,6.81l-5.29-2.82a2.07,2.07,0,0,0-1.39-.36c-1.2.28-.92,2.07-.34,3.16,1.83,3.43,4.06,7,7.64,8.5,2.88,1.21,6.14.88,9.27.69,13.05-.8,26.58,1.37,37.77,8.14,2.21,1.34,4.46,3,5.2,5.52.33,1.11.1,2.62-1,2.94a2.74,2.74,0,0,1-1.9-.4l-9.54-4.66c-1.27,1.32.17,3.45,1.62,4.56s3.2,2.77,2.43,4.43c-3.84-3.76-7.94-7.4-12.84-9.61a26.88,26.88,0,0,0-14.28-2.18c-6.17.76-12,3.66-18.23,3.7a23.05,23.05,0,0,1-16.42-7.28,31.33,31.33,0,0,1-7.93-16.38,2.74,2.74,0,0,1,0-1.53c.68-1.61,3.17-.67,4.31.65,2.64,3.07,4.64,7.5,8.65,8.06-1-5.48-5.51-9.51-8.36-14.28-2.32-3.87-3.25-9.51.19-12.42a4.41,4.41,0,0,1,3.78-1.07,2.91,2.91,0,0,1,2.26,3" transform="translate(-0.16 -0.13)"/><path class="cls-29" d="M12.7,204.33a14.77,14.77,0,0,0,15.71,11.53,7.49,7.49,0,0,1,2.16,0,1.91,1.91,0,0,1,1.55,1.34A1.86,1.86,0,0,1,31,219.09a5.41,5.41,0,0,1-2.36.33l-5.76-.1a7.73,7.73,0,0,1-2.27-.28,6.59,6.59,0,0,1-2-1.21c-4.1-3.31-7-8.58-6.14-13.79" transform="translate(-0.16 -0.13)"/><path class="cls-29" d="M4.68,203.72c6.08,4.84,4.67,15.58,11,20.08,4,2.84,9.59,1.95,14-.18s8.29-5.33,12.86-7.1a23,23,0,0,1,20.34,2,43,43,0,0,1,7.85,7c2.11,2.25,4.36,5.17,3.4,8.1a29.89,29.89,0,0,0-32.33-6c-3.15,1.39-6,3.33-9.1,4.88-5.34,2.7-11.5,4.22-17.36,3S4.06,230.08,2.67,224.26l8.42,3.24c-.3-2.09-2-3.66-3.28-5.31a18.76,18.76,0,0,1-3.3-16.51" transform="translate(-0.16 -0.13)"/><path class="cls-29" d="M4.28,241.39a19.15,19.15,0,0,0,13.25,4.83,7,7,0,0,1,2.73.21,1.94,1.94,0,0,1,1.34,2.12c-.4,1.46-2.74,1.44-3.4,2.8a2.08,2.08,0,0,0,1,2.54,5.06,5.06,0,0,0,2.94.41c5.83-.51,11.11-3.49,16.15-6.45s10.23-6,16-6.81,12.42,1.45,15,6.7a1.82,1.82,0,0,1,.23.79c0,1-1.38,1.35-2.4,1.28-5.72-.41-11.66-3.51-16.87-1.14-2.57,1.17-4.4,3.46-6.31,5.53-6.61,7.13-15.85,12.42-25.57,12.07a8,8,0,0,1,3.51-3.4c-1.39-2.66-5.64-1.83-7.92-3.79-1.59-1.37-1.81-3.71-2.76-5.57-1.14-2.24-3.32-3.73-5.09-5.52s-3.27-4.32-2.49-6.72" transform="translate(-0.16 -0.13)"/><path class="cls-29" d="M11.29,272.48c3.28,5.2,8.71,9.71,14.85,9.44s11.16-5.25,15.41-9.86,9.23-9.54,15.5-9.66c3.23-.06,6.93,1.93,7,5.15-3.42-1.6-7.58-.14-10.45,2.3s-4.83,5.76-7.22,8.68A37.72,37.72,0,0,1,23,291.84c-1.66.25-4-.1-4.11-1.77-.1-1.16,1-2.15,1-3.31a3.59,3.59,0,0,0-1.5-2.2,24,24,0,0,1-6.25-9.09" transform="translate(-0.16 -0.13)"/><path class="cls-29" d="M65.93,286.14a3.33,3.33,0,0,0-3.21-1.47,9.8,9.8,0,0,0-3.5,1.22c-3.5,1.74-7.08,3.54-9.8,6.34-3.25,3.34-5,7.8-7.24,11.88-1.33,2.43-3,4.87-5.53,6s-6.08.32-7-2.28a2.54,2.54,0,0,1,.19-2.37c1-1.42,3.36-.69,4.94-1.47s2-2.63,2.52-4.23A24.17,24.17,0,0,1,45.19,289a72.1,72.1,0,0,1,11.49-7.17c1.84-1,3.85-2,5.92-1.69s3.87,2.74,2.78,4.53" transform="translate(-0.16 -0.13)"/><path class="cls-29" d="M67,299.22a9.14,9.14,0,0,0-6.31,1.84,27.16,27.16,0,0,0-4.77,4.71A12.16,12.16,0,0,0,53.7,309c-.42,1-.55,2.16-.95,3.2a13,13,0,0,1-2.26,3.44l-3.65,4.44c-1.21,1.47-2.68,3.07-4.58,3a.85.85,0,0,1-.62-.2.89.89,0,0,1-.18-.58c-.18-3.67,3.58-6.11,5.72-9.1,1.54-2.16,2.28-4.77,3.49-7.13a19.77,19.77,0,0,1,10.57-9.41,7,7,0,0,1,4.41-.46A3.16,3.16,0,0,1,68,299.58" transform="translate(-0.16 -0.13)"/><path class="cls-29" d="M72,311.83a10.79,10.79,0,0,0-7.74,6.59c-1.12,2.92-.89,6.17-1.47,9.24A17.74,17.74,0,0,1,59.55,335a4.14,4.14,0,0,1-2.32,1.79c-1.52.3-2.87-.91-3.94-2a3.06,3.06,0,0,1-1.17-2.3,2.48,2.48,0,0,1,.48-1.08c1.67-2.39,4.76-3.62,6-6.24,1.21-2.47.46-5.4.68-8.14a11.6,11.6,0,0,1,5.57-8.92,4,4,0,0,1,3.26-.63c1.68.61,2.08,2.8,2,4.58" transform="translate(-0.16 -0.13)"/><path class="cls-29" d="M77.11,331.83A2.9,2.9,0,0,0,74.18,334a11.56,11.56,0,0,0-.24,3.93,20.93,20.93,0,0,1-1,6.92A5.14,5.14,0,0,1,71.79,347a2.09,2.09,0,0,1-2.23.55,2.82,2.82,0,0,1-1.31-2.39c-.46-4,1.19-7.92,2.8-11.61,1-2.35,2.29-4.92,4.7-5.8a3.1,3.1,0,0,1,2.92.28,1.85,1.85,0,0,1,.3,2.68" transform="translate(-0.16 -0.13)"/><path class="cls-29" d="M74.4,322.14c-.26-.4-.88-.22-1.28,0a8.84,8.84,0,0,0-3.66,4.8c-.26.83-.61,1.89-1.47,1.92a1.27,1.27,0,0,1-1.17-1.07,3.24,3.24,0,0,1,.23-1.69,17,17,0,0,1,4.21-6.61,2.59,2.59,0,0,1,1.43-.84c.56-.06,1.2.37,1.15.93" transform="translate(-0.16 -0.13)"/><path class="cls-29" d="M85.39,340.27c-1.46.41-2.29,2-2.48,3.5s.07,3-.07,4.54a4.26,4.26,0,0,1-2.23,3.7,1.59,1.59,0,0,1-1,.11c-.65-.18-1-.87-1.21-1.5a8.07,8.07,0,0,1-.43-5.18c.87-2.65,4-4.62,3.57-7.39" transform="translate(-0.16 -0.13)"/><path class="cls-30" d="M161.68,74.36l.23-1A3.11,3.11,0,0,1,161.68,74.36Z" transform="translate(-0.16 -0.13)"/><path class="cls-30" d="M65.44,284.53q-.19-1.39-.34-2.79A2.65,2.65,0,0,1,65.44,284.53Z" transform="translate(-0.16 -0.13)"/><path class="cls-30" d="M65.93,286.14a2.42,2.42,0,0,0-.33-.45l-.1-.72Z" transform="translate(-0.16 -0.13)"/><path class="cls-30" d="M74.14,233.7l-.4-.37c.21-.39.41-.78.62-1.16A4.57,4.57,0,0,1,74.14,233.7Z" transform="translate(-0.16 -0.13)"/><path class="cls-30" d="M69.33,247.73a1.82,1.82,0,0,1,.23.79c0,1-1.32,1.34-2.33,1.28.33-1.24.7-2.47,1.09-3.7A10.32,10.32,0,0,1,69.33,247.73Z" transform="translate(-0.16 -0.13)"/><path class="cls-30" d="M92.73,125.62q2.08-1.28,4.18-2.53l1,4.08A14.92,14.92,0,0,1,92.73,125.62Z" transform="translate(-0.16 -0.13)"/><path class="cls-30" d="M151.16,101.25a33.6,33.6,0,0,1-2-3.91q2.56-1.05,5-2a31.2,31.2,0,0,0,6.13,11.83C156.52,107.41,153.15,104.52,151.16,101.25Z" transform="translate(-0.16 -0.13)"/><path class="cls-30" d="M65.44,284.53l.06.43-.12-.31Z" transform="translate(-0.16 -0.13)"/><path class="cls-30" d="M124.11,108.55q3.44-1.66,6.81-3.22a69.46,69.46,0,0,1,1.68,7.76A18,18,0,0,1,124.11,108.55Z" transform="translate(-0.16 -0.13)"/><path class="cls-30" d="M169.39,106.4c5.13,4.5,10.66,10,10.31,16.84-.41-3.82-4.11-6.5-7.81-7.51s-7.64-.87-11.38-1.76A21.59,21.59,0,0,1,145.3,99l3.89-1.62a33.6,33.6,0,0,0,2,3.91c2,3.27,5.36,6.16,9.18,5.88a31.2,31.2,0,0,1-6.13-11.83q2.58-1,5-2C160.7,98.47,165.21,102.73,169.39,106.4Z" transform="translate(-0.16 -0.13)"/><path class="cls-30" d="M75.75,327.72a3.1,3.1,0,0,1,2.92.28,1.85,1.85,0,0,1,.3,2.68l-1.86,1.15A2.9,2.9,0,0,0,74.18,334a11.56,11.56,0,0,0-.24,3.93,20.93,20.93,0,0,1-.51,5q-2.2-2.31-4.28-4.64c.53-1.63,1.21-3.24,1.9-4.8C72.08,331.17,73.35,328.6,75.75,327.72Z" transform="translate(-0.16 -0.13)"/><path class="cls-30" d="M59.33,317a11.6,11.6,0,0,1,5.57-8.92,4,4,0,0,1,3.26-.63c1.68.61,2.08,2.8,2,4.58l1.84-.18a10.79,10.79,0,0,0-7.74,6.59c-1.12,2.92-.89,6.17-1.47,9.24a17.58,17.58,0,0,1-.63,2.38q-1.87-2.34-3.64-4.69c0-.08.11-.16.15-.25C59.86,322.65,59.12,319.72,59.33,317Z" transform="translate(-0.16 -0.13)"/><path class="cls-30" d="M81.54,338.06l3.86,2.21c-1.46.41-2.29,2-2.48,3.5s.07,3-.07,4.54a5.17,5.17,0,0,1-1.13,2.89q-2-1.93-4-3.89a5.64,5.64,0,0,1,.26-1.88C78.84,342.79,81.92,340.82,81.54,338.06Z" transform="translate(-0.16 -0.13)"/><path class="cls-30" d="M61.23,296.67a7,7,0,0,1,4.41-.46A3.16,3.16,0,0,1,68,299.58l-1-.36a9.14,9.14,0,0,0-6.31,1.84,27.16,27.16,0,0,0-4.77,4.71A12.16,12.16,0,0,0,53.7,309c-.42,1-.55,2.16-.95,3.2a10.36,10.36,0,0,1-1.61,2.63q-1.31-2-2.56-4.07c.72-1.54,1.31-3.15,2.08-4.66A19.77,19.77,0,0,1,61.23,296.67Z" transform="translate(-0.16 -0.13)"/><path class="cls-30" d="M41.81,227.7c-3.15,1.39-6,3.33-9.1,4.88a33,33,0,0,1-8,2.88q-.31-5.06-.31-10.08a20.46,20.46,0,0,0,5.33-1.74c4.42-2.13,8.29-5.33,12.86-7.1a23,23,0,0,1,20.34,2,43,43,0,0,1,7.85,7c1.74,1.85,3.58,4.17,3.62,6.58-.22.39-.41.78-.62,1.16A29.9,29.9,0,0,0,41.81,227.7Z" transform="translate(-0.16 -0.13)"/><path class="cls-30" d="M73.83,319.6l.57,2.53c-.26-.4-.88-.22-1.28,0a8.84,8.84,0,0,0-3.66,4.8c-.26.83-.61,1.89-1.47,1.92a1.27,1.27,0,0,1-1.17-1.07,3.24,3.24,0,0,1,.23-1.69,17,17,0,0,1,4.21-6.61,2.59,2.59,0,0,1,1.43-.84C73.24,318.61,73.88,319,73.83,319.6Z" transform="translate(-0.16 -0.13)"/><path class="cls-30" d="M28.41,215.87a7.49,7.49,0,0,1,2.16,0,1.91,1.91,0,0,1,1.55,1.34A1.86,1.86,0,0,1,31,219.09a5.41,5.41,0,0,1-2.36.33l-4.14-.07c0-1.22.1-2.43.17-3.64A14.66,14.66,0,0,0,28.41,215.87Z" transform="translate(-0.16 -0.13)"/><path class="cls-30" d="M114.35,169.39l1.19-.39-.32-1.54c.33-.49,1.09-.29,1.61,0,5.21,2.86,8,8.66,10.31,14.12,1,2.43,2.09,5,1.77,7.64a1.11,1.11,0,0,1-.23.64.94.94,0,0,1-.83.21c-1.69-.25-2.37-2.28-2.82-3.93A33.83,33.83,0,0,0,114.35,169.39Z" transform="translate(-0.16 -0.13)"/><path class="cls-30" d="M38.31,247.84c5-3,10.23-6,16-6.81,5.15-.68,11,1,14,5.07-.4,1.23-.77,2.47-1.09,3.7h-.06c-5.72-.41-11.66-3.51-16.87-1.14-2.57,1.17-4.4,3.46-6.31,5.53a39.49,39.49,0,0,1-14.86,10.25q-1.38-5.53-2.34-11.06A53.86,53.86,0,0,0,38.31,247.84Z" transform="translate(-0.16 -0.13)"/><path class="cls-30" d="M45.19,289a72.1,72.1,0,0,1,11.49-7.17c1.84-1,3.85-2,5.92-1.69a3.93,3.93,0,0,1,2.5,1.62q.15,1.4.34,2.79l-.06.12.12.31.1.72a3.55,3.55,0,0,0-2.88-1,9.8,9.8,0,0,0-3.5,1.22c-3.5,1.74-7.08,3.54-9.8,6.34s-4.26,6.11-6,9.47q-1.87-3.53-3.54-7.08A28.24,28.24,0,0,1,45.19,289Z" transform="translate(-0.16 -0.13)"/><path class="cls-30" d="M41.55,272.06c4.24-4.61,9.23-9.54,15.5-9.66,3.23-.06,6.93,1.93,7,5.15-3.42-1.6-7.58-.14-10.45,2.3s-4.83,5.76-7.22,8.68A37.33,37.33,0,0,1,36.54,287q-1.58-3.84-2.94-7.69A44.42,44.42,0,0,0,41.55,272.06Z" transform="translate(-0.16 -0.13)"/><path class="cls-30" d="M31.31,186.45q.55-1.2,1.14-2.39a5.59,5.59,0,0,1,1.52,3.8Z" transform="translate(-0.16 -0.13)"/><path class="cls-30" d="M181,100.64a42,42,0,0,1,4.72,12.18c-1.73-4.56-6-8.07-10.08-11.08s-8.26-6.36-10.13-10.8c2.64-1,5.1-1.87,7.38-2.67.06.17.1.35.16.52C174.74,93.26,178.46,96.61,181,100.64Z" transform="translate(-0.16 -0.13)"/><path class="cls-30" d="M66.1,159.28c6.95,4.46,15,6.81,23.11,8.53,7.22,1.54,14.89,2.79,21,6.76l-.89-.83.94-1.27A26.26,26.26,0,0,1,121.43,192c-2.84-1.52-4.49-4.57-5.7-7.56-.63-1.55-1.2-3.15-1.89-4.68l3,8.69a9.79,9.79,0,0,1,1.2,5.79c-2.42,2.17-6.47.27-8.16-2.51s-2.1-6.18-3.74-9c-2.52-4.31-7.52-6.53-12.38-7.66-13.06-3-27.24-.23-39.78-5-3.23-1.22-6.52-3.29-7.92-6.31l1.1-1.28,14.06,5a2.29,2.29,0,0,0,1.19.2c1-.2,1.24-1.69.62-2.52a5.18,5.18,0,0,0-2.65-1.49,27.87,27.87,0,0,1-9.4-5.41q3.19-3.35,6.65-6.56A36.47,36.47,0,0,0,66.1,159.28Z" transform="translate(-0.16 -0.13)"/><path class="cls-30" d="M34.6,196.36c2.88,1.21,6.14.88,9.27.69,13.05-.8,26.58,1.37,37.77,8.14,2.21,1.34,4.46,3,5.2,5.52.33,1.11.1,2.62-1,2.94a2.74,2.74,0,0,1-1.9-.4l-9.54-4.66c-1.27,1.32.17,3.45,1.62,4.56s3.2,2.77,2.43,4.43c-3.84-3.76-7.94-7.4-12.84-9.61a26.88,26.88,0,0,0-14.28-2.18c-6.17.76-12,3.66-18.23,3.7a21,21,0,0,1-7.82-1.5,68.1,68.1,0,0,1,3.92-16.39A12.88,12.88,0,0,0,34.6,196.36Z" transform="translate(-0.16 -0.13)"/><path class="cls-30" d="M48.12,173.85c8,6.07,19,5.56,28.65,8.18a44.09,44.09,0,0,1,21.83,13.79,7.6,7.6,0,0,1,2.19,4.29c.09,1.63-1.2,3.43-2.83,3.25-1.25-.13-2.1-1.27-2.86-2.27a29.77,29.77,0,0,0-19.52-11.24c-4.8-.63-9.68-.06-14.51-.37A40.9,40.9,0,0,1,35.7,178.12a101.85,101.85,0,0,1,6.88-10A29.7,29.7,0,0,0,48.12,173.85Z" transform="translate(-0.16 -0.13)"/><path class="cls-30" d="M147.88,114.61c4.92,2.12,10.26,3.22,15.06,5.6,11.07,5.5,17.91,17.31,20.46,29.41s1.41,24.62.27,36.93l-3.91-1a170.62,170.62,0,0,0-1.37-25.14c-.86-7.06-2.16-14.42-6.53-20-3.68-4.74-9.13-7.72-13.83-11.44-3.8-3-7.25-6.61-11.71-8.51-5.47-2.33-11.73-1.77-17.49-3.27a25.09,25.09,0,0,1-10.52-5.73q2.92-1.47,5.81-2.87a18,18,0,0,0,8.49,4.54,69.46,69.46,0,0,0-1.68-7.76q3.2-1.48,6.32-2.87a12.18,12.18,0,0,0,.79,3.43C139.7,110.07,143.75,112.83,147.88,114.61Z" transform="translate(-0.16 -0.13)"/><path class="cls-30" d="M185.73,112.83a12,12,0,0,1,.72,2.91Q186.1,114.28,185.73,112.83Z" transform="translate(-0.16 -0.13)"/><path class="cls-30" d="M137.68,130.25a38.94,38.94,0,0,1,20.07,21.51,26,26,0,0,0,2.19,5.09c1.16,1.8,2.87,3.16,4.26,4.78,3.28,3.81,4.67,8.9,5.2,13.9.26,2.49.29,5.17-1,7.29a6.67,6.67,0,0,1-8.65,2.18c.4-10-4.08-19.75-10.86-27.08s-15.68-12.4-25-16.06A63.23,63.23,0,0,0,115,139c-7.51-1.74-15.36-1.52-22.88-3.19a32.43,32.43,0,0,1-9.5-3.67q5-3.37,10.11-6.51a14.92,14.92,0,0,0,5.15,1.56l-1-4.08q4.86-2.88,9.77-5.57c3.74,3.49,8.66,5.65,13.59,7.2C126.09,126.55,132.13,127.73,137.68,130.25Z" transform="translate(-0.16 -0.13)"/><path class="cls-30" d="M106.92,145.26c17.61,3.49,32.43,18.28,36,35.88a9.53,9.53,0,0,1,0,4.91,3.78,3.78,0,0,1-3.7,2.73c-2.14-.25-3.19-2.66-3.92-4.68-4.63-12.77-14.22-24.86-27.51-27.64-7.75-1.62-15.83.06-23.68-1a34.26,34.26,0,0,1-19.48-9.85q4.77-4,9.86-7.73c4.38,3.3,9.92,4.75,15.37,5.46C95.52,144.09,101.29,144.14,106.92,145.26Z" transform="translate(-0.16 -0.13)"/><path class="cls-30" d="M625.2,74.36l-.23-1A3.11,3.11,0,0,0,625.2,74.36Z" transform="translate(-0.16 -0.13)"/><path class="cls-30" d="M721.44,284.53q.19-1.39.34-2.79A2.65,2.65,0,0,0,721.44,284.53Z" transform="translate(-0.16 -0.13)"/><path class="cls-30" d="M720.95,286.14a2.42,2.42,0,0,1,.33-.45l.1-.72Z" transform="translate(-0.16 -0.13)"/><path class="cls-30" d="M712.74,233.7l.4-.37c-.21-.39-.41-.78-.62-1.16A4.57,4.57,0,0,0,712.74,233.7Z" transform="translate(-0.16 -0.13)"/><path class="cls-30" d="M717.54,247.73a1.82,1.82,0,0,0-.23.79c0,1,1.32,1.34,2.33,1.28-.33-1.24-.7-2.47-1.09-3.7A10.32,10.32,0,0,0,717.54,247.73Z" transform="translate(-0.16 -0.13)"/><path class="cls-30" d="M694.14,125.62q-2.08-1.28-4.18-2.53l-1,4.08A14.92,14.92,0,0,0,694.14,125.62Z" transform="translate(-0.16 -0.13)"/><path class="cls-30" d="M635.71,101.25a33.6,33.6,0,0,0,2-3.91q-2.56-1.05-5-2a31.2,31.2,0,0,1-6.13,11.83C630.35,107.41,633.73,104.52,635.71,101.25Z" transform="translate(-0.16 -0.13)"/><path class="cls-30" d="M721.44,284.53l-.06.43.12-.31Z" transform="translate(-0.16 -0.13)"/><path class="cls-30" d="M662.77,108.55q-3.44-1.66-6.81-3.22a69.46,69.46,0,0,0-1.68,7.76A18,18,0,0,0,662.77,108.55Z" transform="translate(-0.16 -0.13)"/><path class="cls-30" d="M617.48,106.4c-5.13,4.5-10.66,10-10.31,16.84.41-3.82,4.11-6.5,7.81-7.51s7.64-.87,11.38-1.76a21.59,21.59,0,0,0,15.21-15l-3.89-1.62a33.6,33.6,0,0,1-2,3.91c-2,3.27-5.36,6.16-9.18,5.88a31.2,31.2,0,0,0,6.13-11.83q-2.58-1-5-2C626.17,98.47,621.67,102.73,617.48,106.4Z" transform="translate(-0.16 -0.13)"/><path class="cls-30" d="M711.12,327.72a3.1,3.1,0,0,0-2.92.28,1.85,1.85,0,0,0-.3,2.68l1.86,1.15a2.9,2.9,0,0,1,2.93,2.16,11.56,11.56,0,0,1,.24,3.93,20.93,20.93,0,0,0,.51,5q2.2-2.31,4.28-4.64c-.53-1.63-1.21-3.24-1.9-4.8C714.8,331.17,713.53,328.6,711.12,327.72Z" transform="translate(-0.16 -0.13)"/><path class="cls-30" d="M727.54,317a11.6,11.6,0,0,0-5.57-8.92,4,4,0,0,0-3.26-.63c-1.68.61-2.08,2.8-2,4.58l-1.84-.18a10.79,10.79,0,0,1,7.74,6.59c1.12,2.92.89,6.17,1.47,9.24a17.58,17.58,0,0,0,.63,2.38q1.87-2.34,3.64-4.69c0-.08-.11-.16-.15-.25C727,322.65,727.76,319.72,727.54,317Z" transform="translate(-0.16 -0.13)"/><path class="cls-30" d="M705.34,338.06l-3.86,2.21c1.46.41,2.29,2,2.48,3.5s-.07,3,.07,4.54a5.17,5.17,0,0,0,1.13,2.89q2-1.93,4-3.89a5.64,5.64,0,0,0-.26-1.88C708,342.79,705,340.82,705.34,338.06Z" transform="translate(-0.16 -0.13)"/><path class="cls-30" d="M725.65,296.67a7,7,0,0,0-4.41-.46,3.16,3.16,0,0,0-2.37,3.36l1-.36a9.14,9.14,0,0,1,6.31,1.84,27.16,27.16,0,0,1,4.77,4.71,12.16,12.16,0,0,1,2.21,3.21c.42,1,.55,2.16.95,3.2a10.36,10.36,0,0,0,1.61,2.63q1.31-2,2.56-4.07c-.72-1.54-1.31-3.15-2.08-4.66A19.77,19.77,0,0,0,725.65,296.67Z" transform="translate(-0.16 -0.13)"/><path class="cls-30" d="M745.07,227.7c3.15,1.39,6,3.33,9.1,4.88a33,33,0,0,0,8,2.88q.31-5.06.31-10.08a20.46,20.46,0,0,1-5.33-1.74c-4.42-2.13-8.29-5.33-12.86-7.1a23,23,0,0,0-20.34,2,43,43,0,0,0-7.85,7c-1.74,1.85-3.58,4.17-3.62,6.58.22.39.41.78.62,1.16A29.9,29.9,0,0,1,745.07,227.7Z" transform="translate(-0.16 -0.13)"/><path class="cls-30" d="M713.05,319.6l-.57,2.53c.26-.4.88-.22,1.28,0a8.84,8.84,0,0,1,3.66,4.8c.26.83.61,1.89,1.47,1.92a1.27,1.27,0,0,0,1.17-1.07,3.24,3.24,0,0,0-.23-1.69,17,17,0,0,0-4.21-6.61,2.59,2.59,0,0,0-1.43-.84C713.64,318.61,713,319,713.05,319.6Z" transform="translate(-0.16 -0.13)"/><path class="cls-30" d="M758.47,215.87a7.49,7.49,0,0,0-2.16,0,1.91,1.91,0,0,0-1.55,1.34,1.86,1.86,0,0,0,1.16,1.91,5.41,5.41,0,0,0,2.36.33l4.14-.07c0-1.22-.1-2.43-.17-3.64A14.66,14.66,0,0,1,758.47,215.87Z" transform="translate(-0.16 -0.13)"/><path class="cls-30" d="M672.53,169.39l-1.19-.39.32-1.54c-.33-.49-1.09-.29-1.61,0-5.21,2.86-8,8.66-10.31,14.12-1,2.43-2.09,5-1.77,7.64a1.11,1.11,0,0,0,.23.64.94.94,0,0,0,.83.21c1.69-.25,2.37-2.28,2.82-3.93A33.83,33.83,0,0,1,672.53,169.39Z" transform="translate(-0.16 -0.13)"/><path class="cls-30" d="M748.56,247.84c-5-3-10.23-6-16-6.81-5.15-.68-11,1-14,5.07.4,1.23.77,2.47,1.09,3.7h.06c5.72-.41,11.66-3.51,16.87-1.14,2.57,1.17,4.4,3.46,6.31,5.53a39.49,39.49,0,0,0,14.86,10.25q1.38-5.53,2.34-11.06A53.86,53.86,0,0,1,748.56,247.84Z" transform="translate(-0.16 -0.13)"/><path class="cls-30" d="M741.68,289a72.1,72.1,0,0,0-11.49-7.17c-1.84-1-3.85-2-5.92-1.69a3.93,3.93,0,0,0-2.5,1.62q-.15,1.4-.34,2.79l.06.12-.12.31-.1.72a3.55,3.55,0,0,1,2.88-1,9.8,9.8,0,0,1,3.5,1.22c3.5,1.74,7.08,3.54,9.8,6.34s4.26,6.11,6,9.47q1.87-3.53,3.54-7.08A28.24,28.24,0,0,0,741.68,289Z" transform="translate(-0.16 -0.13)"/><path class="cls-30" d="M745.33,272.06c-4.24-4.61-9.23-9.54-15.5-9.66-3.23-.06-6.93,1.93-7,5.15,3.42-1.6,7.58-.14,10.45,2.3s4.83,5.76,7.22,8.68a37.33,37.33,0,0,0,9.89,8.46q1.58-3.84,2.94-7.69A44.42,44.42,0,0,1,745.33,272.06Z" transform="translate(-0.16 -0.13)"/><path class="cls-30" d="M755.56,186.45q-.55-1.2-1.14-2.39a5.59,5.59,0,0,0-1.52,3.8Z" transform="translate(-0.16 -0.13)"/><path class="cls-30" d="M605.87,100.64a42,42,0,0,0-4.72,12.18c1.73-4.56,6-8.07,10.08-11.08s8.26-6.36,10.13-10.8c-2.64-1-5.1-1.87-7.38-2.67-.06.17-.1.35-.16.52C612.14,93.26,608.41,96.61,605.87,100.64Z" transform="translate(-0.16 -0.13)"/><path class="cls-30" d="M720.78,159.28c-6.95,4.46-15,6.81-23.11,8.53-7.22,1.54-14.89,2.79-21,6.76l.89-.83-.94-1.27A26.26,26.26,0,0,0,665.45,192c2.84-1.52,4.49-4.57,5.7-7.56.63-1.55,1.2-3.15,1.89-4.68l-3,8.69a9.79,9.79,0,0,0-1.2,5.79c2.42,2.17,6.47.27,8.16-2.51s2.1-6.18,3.74-9c2.52-4.31,7.52-6.53,12.38-7.66,13.06-3,27.24-.23,39.78-5,3.23-1.22,6.52-3.29,7.92-6.31l-1.1-1.28-14.06,5a2.29,2.29,0,0,1-1.19.2c-1-.2-1.24-1.69-.62-2.52a5.18,5.18,0,0,1,2.65-1.49,27.87,27.87,0,0,0,9.4-5.41q-3.19-3.35-6.65-6.56A36.47,36.47,0,0,1,720.78,159.28Z" transform="translate(-0.16 -0.13)"/><path class="cls-30" d="M752.28,196.36c-2.88,1.21-6.14.88-9.27.69-13.05-.8-26.58,1.37-37.77,8.14-2.21,1.34-4.46,3-5.2,5.52-.33,1.11-.1,2.62,1,2.94a2.74,2.74,0,0,0,1.9-.4l9.54-4.66c1.27,1.32-.17,3.45-1.62,4.56s-3.2,2.77-2.43,4.43c3.84-3.76,7.94-7.4,12.84-9.61a26.88,26.88,0,0,1,14.28-2.18c6.17.76,12,3.66,18.23,3.7a21,21,0,0,0,7.82-1.5,68.1,68.1,0,0,0-3.92-16.39A12.88,12.88,0,0,1,752.28,196.36Z" transform="translate(-0.16 -0.13)"/><path class="cls-30" d="M738.76,173.85c-8,6.07-19,5.56-28.65,8.18a44.09,44.09,0,0,0-21.83,13.79,7.6,7.6,0,0,0-2.19,4.29c-.09,1.63,1.2,3.43,2.83,3.25,1.25-.13,2.1-1.27,2.86-2.27a29.77,29.77,0,0,1,19.52-11.24c4.8-.63,9.68-.06,14.51-.37a40.9,40.9,0,0,0,25.36-11.37,101.85,101.85,0,0,0-6.88-10A29.7,29.7,0,0,1,738.76,173.85Z" transform="translate(-0.16 -0.13)"/><path class="cls-30" d="M639,114.61c-4.92,2.12-10.26,3.22-15.06,5.6-11.07,5.5-17.91,17.31-20.46,29.41s-1.41,24.62-.27,36.93l3.91-1a170.62,170.62,0,0,1,1.37-25.14c.86-7.06,2.16-14.42,6.53-20,3.68-4.74,9.13-7.72,13.83-11.44,3.8-3,7.25-6.61,11.71-8.51,5.47-2.33,11.73-1.77,17.49-3.27a25.09,25.09,0,0,0,10.52-5.73q-2.92-1.47-5.81-2.87a18,18,0,0,1-8.49,4.54,69.46,69.46,0,0,1,1.68-7.76q-3.2-1.48-6.32-2.87a12.18,12.18,0,0,1-.79,3.43C647.18,110.07,643.13,112.83,639,114.61Z" transform="translate(-0.16 -0.13)"/><path class="cls-30" d="M601.15,112.83a12,12,0,0,0-.72,2.91Q600.78,114.28,601.15,112.83Z" transform="translate(-0.16 -0.13)"/><path class="cls-30" d="M649.2,130.25a38.94,38.94,0,0,0-20.07,21.51,26,26,0,0,1-2.19,5.09c-1.16,1.8-2.87,3.16-4.26,4.78-3.28,3.81-4.67,8.9-5.2,13.9-.26,2.49-.29,5.17,1,7.29a6.67,6.67,0,0,0,8.65,2.18c-.4-10,4.08-19.75,10.86-27.08s15.68-12.4,25-16.06a63.23,63.23,0,0,1,8.89-2.86c7.51-1.74,15.36-1.52,22.88-3.19a32.43,32.43,0,0,0,9.5-3.67q-5-3.37-10.11-6.51a14.92,14.92,0,0,1-5.15,1.56l1-4.08q-4.86-2.88-9.77-5.57c-3.74,3.49-8.66,5.65-13.59,7.2C660.79,126.55,654.74,127.73,649.2,130.25Z" transform="translate(-0.16 -0.13)"/><path class="cls-30" d="M680,145.26c-17.61,3.49-32.43,18.28-36,35.88a9.53,9.53,0,0,0,0,4.91,3.78,3.78,0,0,0,3.7,2.73c2.14-.25,3.19-2.66,3.92-4.68,4.63-12.77,14.22-24.86,27.51-27.64,7.75-1.62,15.83.06,23.68-1a34.26,34.26,0,0,0,19.48-9.85q-4.77-4-9.86-7.73c-4.38,3.3-9.92,4.75-15.37,5.46C691.36,144.09,685.58,144.14,680,145.26Z" transform="translate(-0.16 -0.13)"/><line class="cls-7" x1="425.33" y1="24.45" x2="418.98" y2="370.95"/><path class="cls-7" d="M434.39,314.38l35.73,17.15s39.54-13.82,47.16-21,29.06-34.28,29.06-34.28v-18.6s-82.1,7.15-120.85,8.1v21.44l8.89,27.15V382" transform="translate(-0.16 -0.13)"/><path class="cls-7" d="M499.67,42.16s21.9,77.38,52.39,115c0,0,12.12,24.49,16,44.62,0,0-17.94,12.55-27.95,14.93s-117.83,3.33-117.83,3.33" transform="translate(-0.16 -0.13)"/><path class="cls-7" d="M571.67,210.38s-21.52,13.49-31.52,15.87-117.83,3.33-117.83,3.33" transform="translate(-0.16 -0.13)"/><path class="cls-7" d="M594.53,187.49S673.8,177.65,704,218.63c37.48,50.82,9.11,115-19.37,140.69,0,0-2.54,7.62,5.4,7s91.48-47.64,94.64-140.69S702.44,97.63,600.49,59.2" transform="translate(-0.16 -0.13)"/><circle class="cls-7" cx="393.26" cy="235.89" r="6.91"/><circle class="cls-7" cx="408.6" cy="174.02" r="5.9"/><circle class="cls-7" cx="449.2" cy="245.18" r="5.9"/><circle class="cls-7" cx="424.83" cy="326.2" r="3.91"/><circle class="cls-7" cx="424.83" cy="349.57" r="3.91"/><circle class="cls-7" cx="424.83" cy="371.04" r="3.91"/><circle class="cls-7" cx="495.05" cy="245.18" r="5.9"/><circle class="cls-7" cx="539.11" cy="241.78" r="5.9"/><circle class="cls-7" cx="408.6" cy="126.38" r="5.9"/><circle class="cls-7" cx="408.6" cy="82.89" r="4.77"/><circle class="cls-7" cx="408.6" cy="46.68" r="4.04"/><circle class="cls-7" cx="408.6" cy="24.45" r="4.04"/><path class="cls-7" d="M434.39,327.25,470,346.94s48-19.69,52.72-23.82,34.94-42.24,34.94-42.24V255.15" transform="translate(-0.16 -0.13)"/><path class="cls-7" d="M546.34,257.69s18.48-2.21,26.31-12.38" transform="translate(-0.16 -0.13)"/><line class="cls-7" x1="420.92" y1="266.13" x2="425.33" y2="265.66"/><path class="cls-7" d="M393.52,2.66l-7,5.4s-7.3,1-10.8,1.59-14.29,14.93-14.29,14.93c-8.89,2.54-38.11,15.88-38.11,15.88C292.84,40.46,194.71,50,194.71,50l-8.26,9.21c5.08,17.15,6,135.61,6,135.61h26.68l-.32,7-3.49,4.76-3.81,138.79c2.22,7.94,32.71,72.73,32.71,72.73L317,464.13l33-66.38c6.67-6.35,43.51-20.91,43.51-20.91s36.74,14.55,43.41,20.91l33,66.38,72.73-46.05s30.49-64.79,32.71-72.73l-3.81-138.79-3.49-4.76-.32-7h26.68s1-118.46,6-135.61L592.23,50s-98.14-9.53-128.63-9.53c0,0-29.22-13.34-38.11-15.88,0,0-10.8-14.29-14.29-14.93s-10.8-1.59-10.8-1.59Z" transform="translate(-0.16 -0.13)"/><line class="cls-7" x1="361.29" y1="24.45" x2="367.64" y2="370.95"/><path class="cls-7" d="M352.55,314.38l-35.73,17.15s-39.54-13.82-47.16-21-29.06-34.28-29.06-34.28v-18.6s82.1,7.15,120.85,8.1v21.44l-8.89,27.15V382" transform="translate(-0.16 -0.13)"/><polyline class="cls-7" points="211.88 327.12 249.97 408.58 312.38 448.12 343.82 390 393.36 350.94 442.8 390 474.24 448.12 536.65 408.58 574.74 327.12"/><path class="cls-7" d="M287.27,42.16s-21.9,77.38-52.39,115c0,0-12.12,24.49-16,44.62,0,0,17.94,12.55,27.95,14.93s117.83,3.33,117.83,3.33" transform="translate(-0.16 -0.13)"/><path class="cls-7" d="M215.27,210.38s21.52,13.49,31.52,15.87,117.83,3.33,117.83,3.33" transform="translate(-0.16 -0.13)"/><path class="cls-7" d="M192.41,187.49s-79.27-9.84-109.49,31.14c-37.48,50.82-9.11,115,19.37,140.69,0,0,2.54,7.62-5.4,7S5.41,318.67,2.24,225.62,84.5,97.63,186.45,59.2" transform="translate(-0.16 -0.13)"/><circle class="cls-7" cx="378.02" cy="174.02" r="5.9"/><circle class="cls-7" cx="337.42" cy="245.18" r="5.9"/><circle class="cls-7" cx="361.79" cy="326.2" r="3.91"/><circle class="cls-7" cx="361.79" cy="349.57" r="3.91"/><circle class="cls-7" cx="361.79" cy="371.04" r="3.91"/><circle class="cls-7" cx="291.57" cy="245.18" r="5.9"/><circle class="cls-7" cx="247.51" cy="241.78" r="5.9"/><circle class="cls-7" cx="378.02" cy="126.38" r="5.9"/><circle class="cls-7" cx="378.02" cy="82.89" r="4.77"/><circle class="cls-7" cx="378.02" cy="46.68" r="4.04"/><circle class="cls-7" cx="378.02" cy="24.45" r="4.04"/><path class="cls-7" d="M352.55,327.25,317,346.94s-48-19.69-52.72-23.82-34.94-42.24-34.94-42.24V255.15" transform="translate(-0.16 -0.13)"/><path class="cls-7" d="M240.6,257.69s-18.48-2.21-26.31-12.38" transform="translate(-0.16 -0.13)"/><line class="cls-7" x1="365.7" y1="266.13" x2="361.29" y2="265.66"/></g></g></svg>