<svg xmlns="http://www.w3.org/2000/svg" viewBox="0 0 381.05 766.83"><defs><style>.cls-1{fill:#fff;}</style></defs><title>hummelLogo</title><g id="Layer_2" data-name="Layer 2"><g id="Layer_9_copy" data-name="Layer 9 copy"><g id="Rdwyso"><path class="cls-1" d="M189.36,190,380.7,0c.13,2.71.28,4.32.28,5.92q0,90.74.08,181.47a10.66,10.66,0,0,1-3.38,8.32q-49.89,49.79-99.6,99.77-41.79,42-83.48,84.06a49.27,49.27,0,0,0-3.78,5.08l-19.35-19.58q-20.56-20.79-41.13-41.58-63.58-64-127.12-128.07a10.86,10.86,0,0,1-3.1-6.78Q-.12,96.4,0,4.16A6.69,6.69,0,0,1,1.58,0Z"/><path class="cls-1" d="M2,382.48l187.39,190L380.55,382.77c.2,2.06.42,3.29.42,4.53q0,91.47-.11,182.95a12.15,12.15,0,0,1-3.17,7.75Q306.59,649.68,235.22,721.1q-20.11,20.18-40.15,40.43c-1.51,1.53-2.76,3.32-4.37,5.29-10.94-10.94-21.2-21.12-31.37-31.38-13.72-13.84-27.35-27.77-41.08-41.6q-57.58-58-115.14-116a10.85,10.85,0,0,1-3-6.83Q-.11,478.8,0,386.58c0-1,.17-1.9.26-2.85Z"/></g></g></g></svg>