<svg xmlns="http://www.w3.org/2000/svg" viewBox="0 0 617.22 715.54"><defs><style>.cls-1{fill:#fff;}</style></defs><title>mintLogo</title><g id="Layer_2" data-name="Layer 2"><g id="Layer_10" data-name="Layer 10"><path class="cls-1" d="M473.31,172.3C399.87,80.41,324,9.28,323.24,8.57L314.06,0c-14.32,20.59-50.23,73.34-82.17,129.44L202,110.62C184.7,129.41,166.5,150,148.45,171.85,44.9,296.94-4.92,399.58.38,476.91c5.94,86.74,51.76,155.31,132.51,198.3,60,31.92,117.48,38.38,119.9,38.64l7.94.85,48.67-62.2,32.89,63,10.37-1.83c2.56-.45,63.3-11.42,126.32-45.4,85.32-46,133-112.23,137.92-191.5C621.65,399.91,573.35,297.45,473.31,172.3Zm-254.13,318A19.22,19.22,0,0,1,200,509.47h-62.3a19.22,19.22,0,0,1-19.17-19.17V428a19.22,19.22,0,0,1,19.17-19.17H200A19.22,19.22,0,0,1,219.18,428ZM588.2,475c-4.31,69.62-45.43,126-122.23,167.63-44.41,24.06-88.69,36.06-108.11,40.56L315.8,602.61V326.72L138.22,232.6,184,180.46,315.8,202.61V41.33c24.12,23.61,80.38,80.5,135.26,149.19C545,308.12,592.44,406.51,588.2,475Z"/><rect class="cls-1" x="400.48" y="459.95" width="100.63" height="49.52" rx="12" ry="12"/></g></g></svg>