<svg xmlns="http://www.w3.org/2000/svg" viewBox="0 0 951.09 368.28"><defs><style>.cls-1{fill:#fff;}</style></defs><title>mizunoLogo</title><g id="Layer_2" data-name="Layer 2"><g id="Layer_10" data-name="Layer 10"><g id="bWmNSd.tif"><path class="cls-1" d="M546,368.28H416.87c-2.27-7.18-4-14.26-6.72-21-9.18-22.67-23.3-42.15-39.85-60-25.17-27.07-54.88-48.1-87.52-65.15C245.49,202.74,206,189.42,165.05,180a704.27,704.27,0,0,0-86.83-14c-25.15-2.54-50.36-3.81-75.61-4.34a5.45,5.45,0,0,1-2.6-.57c5.41-1.42,10.83-2.81,16.24-4.25,52.7-14,105.61-27.32,158-42.3,37.95-10.84,75.31-23.74,112.83-36,27-8.84,53.75-18.22,80.62-27.35a5,5,0,0,1,2.71-.27l-3.27,2.93c-13.19,11.74-25.93,23.93-37,37.78-7.06,8.86-13.57,18.1-16.91,29.12-4.51,14.86.38,25.8,14.42,32.54,8.68,4.16,18,6.07,27.43,7.14,23.36,2.65,46.69,1.3,70-1.21,55-5.95,108.82-17.85,162.3-31.52a2206.51,2206.51,0,0,0,314.92-106C917.67,15.19,932.78,8.13,948,1.32c.84-.38,1.69-.72,3.09-1.32-.77,1.13-1.19,1.8-1.67,2.43Q919.85,42,890.31,81.67A9,9,0,0,1,885.42,85c-49.2,15.35-98.47,30.5-147.54,46.27-33.94,10.91-67.47,23-99.9,38-19.93,9.18-39.24,19.47-56.62,33C564.62,215.38,551.05,231,543.24,251c-6.44,16.55-8.3,33.81-7.67,51.42.76,21.31,4.76,42.12,9.76,62.78C545.55,366.13,545.74,367,546,368.28ZM384.75,214c29.59,19.43,55.8,41.71,75.77,70.94.37-.95.66-1.73,1-2.51,5.26-13.08,10.12-26.33,15.89-39.18a107.63,107.63,0,0,1,30.82-40.48c1.42-1.14,2.86-2.27,4.9-3.88A621.75,621.75,0,0,1,384.75,214Z"/></g></g></g></svg>