<svg xmlns="http://www.w3.org/2000/svg" xmlns:xlink="http://www.w3.org/1999/xlink" viewBox="0 0 1288.34 1252"><defs><style>.cls-1{fill:#81c564;}.cls-2{fill:#412f1f;}.cls-3{fill:#c5c2a8;}.cls-4{fill:url(#linear-gradient);}.cls-5{fill:#569c4b;}</style><linearGradient id="linear-gradient" x1="432.87" y1="586.93" x2="724.46" y2="540.79" gradientUnits="userSpaceOnUse"><stop offset="0" stop-color="#569c4b"/><stop offset="0.78" stop-color="#79b669"/><stop offset="1" stop-color="#84be72"/></linearGradient></defs><title>mongoDBLogo</title><g id="Layer_2" data-name="Layer 2"><g id="mongoDB_logo"><path class="cls-1" d="M1278.17,266c-6.5-55-26.33-112.33-57.67-143C1115.17,31.67,867.67,0,644.17,0s-471,31.67-576.33,123C36.5,153.67,16.67,211,10.17,266c-26,220-14.23,455,182,678s452,308,452,308,255.77-85,452-308S1304.17,486,1278.17,266Z"/><path class="cls-2" d="M1180.17,309.5c-5.46-46.88-12.18-102.36-38.5-128.5-87.5-64.33-310.79-98.6-498.5-98.6s-411,34.26-498.5,98.6c-26.32,26.14-33,81.62-38.5,128.5C84.33,497,101.86,689.92,266.67,880s376.5,269.6,376.5,269.6,211.69-79.51,376.5-269.6S1202,497,1180.17,309.5Z"/><path class="cls-3" d="M683.5,948s-12.33,16-14.33,25,0,97,0,97l-31-9s1-85-12-104-24-76-24-76l26-77,67,62Z"/><path class="cls-4" d="M643.17,153s16,531,1,696c0,0-5,80-18,108,0,0-216-119.67-216-368.33,0-238.67,163.67-365,201.33-391.33C637.17,174.33,643.17,153,643.17,153Z"/><path class="cls-5" d="M645.66,830s-5.49,100,37.85,118c0,0,194.67-118.67,194.67-332s-131-338.67-198-402c-12.78-12.08-35.33-44.67-37-61Z"/></g></g></svg>