<svg xmlns="http://www.w3.org/2000/svg" viewBox="0 0 891.73 428.86"><defs><style>.cls-1{fill:#fff;}</style></defs><title>nBalanceLogo</title><g id="Layer_2" data-name="Layer 2"><g id="newbalanceLogo"><g id="i29tFL.tif"><path class="cls-1" d="M793.76,0c8.22,1,16.62,1.38,24.63,3.31C830.45,6.21,842.84,8.94,854,14c30.42,13.83,40.51,39.31,37,69.9-4.35,38.34-25.17,67-54,90.68C817.12,191,794.22,202,769.73,209.76c-1.58.5-3.14,1-4.7,1.59-.14,0-.22.25-.68.8,1.1.4,2,.79,3,1.06,25.89,7.41,45.21,21.94,51.72,49.38,4.24,17.86.22,35.1-6.33,51.75-11.78,30-33,52.09-59.27,69.72-35,23.52-73.64,38.06-115.49,42.6-21,2.27-42.23,2-63.37,2-79.83.22-159.66.1-239.49.11h-4.9l-13.83-54.4,46.09-3.28c33.23-2.35,66.47-4.51,99.66-7.33,2.92-.25,5.48-4.7,8.21-7.2l-.8-1.62c-2.51-.33-5-.81-7.54-1q-74.81-4.59-149.63-9.21c-1.53-.1-3.94-1.47-4.28-2.7-5.53-20-10.8-40.14-16.1-60.23a6.16,6.16,0,0,1,.17-1.54c3.95-.35,8-.82,12.09-1.06q76.32-4.49,152.65-8.92c18.79-1.09,37.58-2.59,56.39-3,7.12-.14,10.19-3.2,12.32-9.89l-411.54-26a32.6,32.6,0,0,1,1.51-3.62c5.12-9,10.13-18,15.56-26.77a8.59,8.59,0,0,1,5.76-3.63c27.41-2,54.85-3.6,82.27-5.36q43.38-2.8,86.76-5.67l66.32-4.29q43.88-2.85,87.76-5.71,34.41-2.22,68.82-4.36c15.13-1,30.25-2,45.37-3,5.58-.35,5.29-5.56,8.42-9.41l-130-8.5c1.09-2.11,1.77-3.55,2.57-4.94,11.89-20.63,23.87-41.2,35.6-61.92,1.87-3.3,4-4.78,7.72-5,22.28-1.3,44.55-2.76,66.83-4.17q32.67-2.06,65.33-4.09c5.66-.34,5.23-5.61,8.66-9.53L509.56,52.45c1-2,1.76-3.62,2.62-5.11q12.2-21.22,24.41-42.43A49.25,49.25,0,0,0,538.76,0ZM541.28,333.33a34.42,34.42,0,0,0,3.9.51c14.32,0,28.64.19,42.95-.08a96.34,96.34,0,0,0,40.48-9.51c16.7-8.06,29.41-19.69,34.64-38.3,6.41-22.8-10-39.8-29.31-38.57-12.77.82-25.63.28-38.44.08-3.56-.06-5.69.93-7.52,4.15-14.66,25.72-29.52,51.32-44.3,77C542.87,330,542.23,331.42,541.28,333.33Zm96.45-167.49c14.82,0,28.78.24,42.72-.07a82.35,82.35,0,0,0,36.07-8.66c17.28-8.83,29.15-21.93,31.9-41.8,2-14.39-7-32.9-27-31.64-10.44.66-21,.25-31.45,0-3.8-.1-5.91,1-7.84,4.43-13.87,24.44-28,48.74-42,73.09C639.38,162.44,638.78,163.77,637.73,165.84Z"/><path class="cls-1" d="M410.76,0l10.18,40,1.59,6.28L227.26,34.07,246.76,0Z"/><path class="cls-1" d="M432.21,83.82l17.72,67.34L170.72,132.81c.84-1.72,1.4-3,2.1-4.26,4.29-7.51,9.08-14.78,12.77-22.58,2.68-5.66,6.56-7.35,12.36-7.66,29.42-1.59,58.83-3.4,88.23-5.25,34.06-2.14,68.1-4.44,102.15-6.62C402.77,85.51,417.21,84.71,432.21,83.82Z"/><path class="cls-1" d="M56.71,330.12c6.45-11.22,12.45-21.75,18.61-32.18a4.6,4.6,0,0,1,3.23-1.68c22.23-1.76,44.46-3.41,66.7-5.09l73.66-5.58,69.67-5.23c-.88,1.8-1.43,3.14-2.15,4.38-10.08,17.42-20.26,34.79-30.19,52.3-1.84,3.25-3.9,4.21-7.52,4q-51.08-3.08-102.19-5.85-40.38-2.24-80.77-4.37C63,330.65,60.22,330.39,56.71,330.12Z"/><path class="cls-1" d="M0,428.59c6.36-11.06,12.26-21.46,18.37-31.74.58-1,2.39-1.64,3.68-1.73,28.06-2.05,56.13-4,84.19-6q46.58-3.29,93.16-6.61c10.42-.74,20.84-1.41,31.74-2.15-.77,1.6-1.27,2.8-1.92,3.92-7.93,13.68-15.8,27.39-23.94,40.94-1,1.62-3.37,3.41-5.11,3.41q-98.71.29-197.41.21C2.12,428.86,1.48,428.74,0,428.59Z"/></g></g></g></svg>