<svg xmlns="http://www.w3.org/2000/svg" viewBox="0 0 837.47 297.52"><defs><style>.cls-1{fill:#fff;}</style></defs><title>nikeLogo</title><g id="Layer_2" data-name="Layer 2"><g id="nikeLogo"><g id="_6sjrY5.tif" data-name="6sjrY5.tif"><path class="cls-1" d="M92,297.52c-6.83-1-13.73-1.54-20.47-2.92C41.29,288.41,18.83,272,6.37,243.24,0,228.56-.93,212.9.72,197.17c3.86-36.88,19.29-69.35,39.13-100,19.21-29.66,42.27-56.28,65.89-82.43A201.74,201.74,0,0,1,120.05,0c-.8,1.46-1.59,2.92-2.4,4.36C105.64,25.69,96.12,48,91.75,72.2c-3.47,19.23-3.64,38.37,4.74,56.53,10.7,23.16,29.22,36.52,54.11,41.2,24,4.52,47.93,2.37,71.37-3.31,32.78-7.95,65.32-16.88,97.92-25.52q108-28.64,216-57.41L762.23,23.53,835.15,4.18a3,3,0,0,1,2.31.12c-1.37.61-2.74,1.24-4.12,1.83q-194,83-387.94,166Q331,221,216.47,269.74c-26.63,11.27-54.18,19.82-82.8,24.46-7.52,1.22-15.15,1.79-22.73,2.68-1.52.18-3,.43-4.55.65Z"/></g></g></g></svg>