<svg xmlns="http://www.w3.org/2000/svg" viewBox="0 0 463.19 360.27"><defs><style>.cls-1{fill:#fff;}</style></defs><title>pumaLogo2</title><g id="Layer_2" data-name="Layer 2"><g id="pumaLogo_copy" data-name="pumaLogo copy"><g id="pus1NY"><path class="cls-1" d="M43.33.38c3,.75,7.59,10.16,10.58,10.5,2.54.29,6.28-4.49,8.41-7.54C66.21-2.21,67.21.92,70,5.87c2.28,4,5.67,11,5.67,11a119.32,119.32,0,0,1,13.81,1.39c28.86,5.7,53.4,20.92,76.49,38.2,18.42,13.79,36,28.81,53.44,43.8,16.93,14.52,35,27,55.69,35.56,39.63,16.39,67.71,8.29,91-31.56C374.28,90.39,379.29,74.73,386,60c10.71-23.37,25.89-42.89,49-55.26a53.63,53.63,0,0,1,6.18-2.91C447.55-.54,453.88-1.36,459.07,4s4.76,12,2.49,18.59a29.92,29.92,0,0,1-14.89,17.16c-7.66,4-15.5,7.72-23.06,11.93C406.33,61.3,395.35,76.47,387.23,94c-4,8.69-8.5,17.22-11.74,26.2-5.91,16.41-16.71,28.66-30.88,38.12-4.67,3.12-4.87,5.36-1.36,9.53,10.16,12,13,27.09,15,41.94,2,14.18,2.58,28.6,3,42.93.35,12.4,5.17,22.32,15.28,28.88,7.53,4.88,9.27,6.34,10,15.19.53,6.67,2.06,14.37,6.33,19.84,5,6.41,4.79,10.77,3.42,15.91-3.87,7.19-1.59,15.56-1.53,22.09.05,5.29-1.94,6-6.9,5.53-10.61-.93-18.24-9.93-21.57-17-3.37-10.26-3.78-20.62-3.23-31.75.81-9.25-4.12-12.11-6.43-13.83C328,276.24,306.77,249.13,294.1,215.5c-5.74-15.23-13.88-28.68-29.11-36.59-9-4.66-18.34-6.44-28.32-6.59-27.1-.42-53.47-4.64-76-20.75C149,143.27,138.77,133,128.39,123.09c-2.9-2.77-5.4-6.18-7.85-5.88-1.93.24-3.76,3.59-6.21,5.83-12.78,11.69-28.18,10.5-43.21,5.58-11-3.6-21.48-8.81-32.2-13.29-9.82-4.11-13.72-4.79-13.36,6.4-1.62,5.87-5.85,6.43-10.71,5.68C8.18,126.39,1,119.94.18,113.71c-1-7.46,2.09-13.61,8.28-17.6,12.36-8,26.07-9,40.2-6.63,4.8.79,10.11,3.71,12.38-3.7,2-6.47-1.87-13-9.51-14.9-4.41-1.08-8.43.34-12.91,1.32-6.08,1.32-10.5,0-14.7-4.5A80.69,80.69,0,0,0,13,58.52c-7.25-5.42-8.45-12.72-.54-16.69C16,40,17.71,38,19.08,31.28c.52-2.58,1.73-6.69,3.71-7.41,11.08-4,12.45-7.6,16.55-15.89C39.91,6.84,41.83.83,43.33.38Z"/></g></g></g></svg>