<svg xmlns="http://www.w3.org/2000/svg" viewBox="0 0 1791.06 1593.26"><defs><style>.cls-1{fill:#00d8ff;}</style></defs><title>reactLogo</title><g id="Layer_2" data-name="Layer 2"><g id="react_logo"><circle class="cls-1" cx="895.55" cy="795.12" r="159.96"/><path class="cls-1" d="M895.55,1161.69c-108.22,0-211-6.27-305.38-18.63-99.42-13-187.79-32.59-262.66-58.17C232.09,1052.28,151.21,1009,93.6,959.64,32.37,907.2,0,850.3,0,795.06,0,741.4,30.75,686.73,88.93,637c53.9-46.11,130.61-87.28,221.82-119.07C389,490.62,479.32,469.26,579.11,454.4,680.5,439.31,787,431.66,895.55,431.66c213.49,0,418.42,30.06,577.05,84.65,92.74,31.92,171,73.2,226.33,119.37,60.26,50.28,92.11,105.4,92.11,159.39,0,56.13-33.65,113.5-97.31,165.91-59.23,48.76-142.77,91.84-241.59,124.56-74.88,24.81-161.66,44-257.92,57C1100,1155.24,999.52,1161.69,895.55,1161.69Zm0-653.52c-104.83,0-207.51,7.37-305.18,21.91-95.07,14.15-180.68,34.36-254.46,60.06-82.3,28.68-150.52,65-197.26,105-40.08,34.28-62.15,69.78-62.15,100,0,31.73,23.74,69.54,66.85,106.46,50.32,43.09,122.55,81.46,208.89,111,70.07,23.95,153.46,42.35,247.85,54.71,91.14,11.93,190.54,18,295.45,18,202.73,0,391.86-25.67,532.54-72.28,90-29.79,165-68.17,217-111,44.77-36.86,69.43-74.8,69.43-106.84,0-30.13-22.95-65.87-64.62-100.64-48.26-40.27-118.19-76.84-202.21-105.77C1296.88,536.76,1100.79,508.17,895.55,508.17Z"/><path class="cls-1" d="M532.22,1592.78c-32.4,0-61.18-7-85.43-21-46.48-26.82-78.48-80.76-92.53-156-13-69.72-10.39-156.73,7.61-251.64,15.45-81.49,42.05-170.42,79.05-264.32,37.56-95.33,84.14-191.38,138.42-285.47h0C686,429.42,814.42,266.91,941,156.77c74-64.38,148.84-111.55,216.48-136.42,73.66-27.08,137.31-27.14,184.07-.17,48.62,28,81.51,85.84,95.11,167.18,12.66,75.68,8.23,169.59-12.79,271.57-15.93,77.29-42.68,162-79.5,251.91-36,88-80.67,178.25-132.62,268.32-54,93.72-110.8,179.59-168.69,255.23-60.93,79.62-122,146.4-181.59,198.48-75.91,66.37-153.84,114.8-225.38,140.06C598.64,1586.17,563.72,1592.78,532.22,1592.78ZM1259.76,76.49c-21.74,0-47.48,5.25-75.86,15.68-59,21.69-125.62,64-192.66,122.32-120.36,104.72-243.1,260.3-345.61,438.09h0C593.21,743.42,548.29,836,512.11,927.87c-35.25,89.45-60.5,173.74-75.06,250.53-16.24,85.65-18.86,162.88-7.57,223.34,9.68,51.84,29.41,88.7,55.55,103.78,27.48,15.85,72.09,14.17,125.61-4.73,62.48-22.07,131.81-65.47,200.49-125.51,55.74-48.75,113.34-111.79,171.2-187.39,55.88-73,110.78-156.1,163.17-247C1246.77,765.33,1319,588.67,1349,443.48c19.13-92.83,23.37-177,12.26-243.51-9.56-57.2-30.11-97.51-57.86-113.51C1291.8,79.8,1277,76.49,1259.76,76.49Z"/><path class="cls-1" d="M1259.14,1593.26c-29.8,0-62.62-6.16-97.67-18.49-66.91-23.54-141-69.28-214.22-132.29C884.42,1388.4,820.7,1321,757.85,1242,694,1161.87,634,1073.56,579.64,979.58h0C472.68,794.79,396,602.35,363.81,437.73,345,341.47,341.5,253.06,353.73,182c13.32-77.35,45.07-132.53,91.8-159.56C494.09-5.64,560.6-5.27,637.86,23.56c71.87,26.82,151,77.54,228.87,146.67,59,52.38,119.07,117.88,178.54,194.68,58.19,75.14,114.11,158.89,166.21,248.91,54.23,93.68,100.29,185.74,136.89,273.61,38.56,92.58,65.9,178.85,81.24,256.43,19.58,98.91,22.62,190.62,8.78,265.21-14.71,79.27-47.75,135.78-95.56,163.43C1318.94,1586.34,1290.73,1593.26,1259.14,1593.26Zm-613.28-652C698.38,1032,756.2,1117.14,817.7,1194.38c59.88,75.19,120.26,139.15,179.46,190.11,66.08,56.85,131.68,97.7,189.7,118.11,49.74,17.5,91.53,18.81,117.65,3.69,27.46-15.89,48.29-55.37,58.65-111.17,12.09-65.15,9.11-146.89-8.61-236.39-14.36-72.6-40.2-154-76.81-241.86C1242.4,832,1197.83,743,1145.25,652.16,1043.66,476.64,926.7,325.81,815.92,227.46,745,164.52,674.22,118.81,611.1,95.25,556.77,75,511.58,72.65,483.86,88.7c-26.08,15.09-45.51,52.84-54.72,106.33-10.67,61.95-7.29,140.79,9.77,228C469.54,579.56,543,763.6,645.86,941.25Z"/></g></g></svg>