<svg xmlns="http://www.w3.org/2000/svg" viewBox="0 0 1701.15 1610.21"><defs><style>.cls-1{fill:#764abc;}</style></defs><title>reduxLogo</title><g id="Layer_2" data-name="Layer 2"><g id="redux_logo"><path class="cls-1" d="M1232,276.94c-24.28-52-67.53-126.41-135.73-185.6C1063.64,63,1028.33,40.94,991.33,25.69A339.81,339.81,0,0,0,861.18,0,452.68,452.68,0,0,0,694.57,31.5C640.63,52.75,591.1,84.14,547.37,124.81c-92.05,85.6-154.41,209-180.32,357C345.74,603.41,352.28,728,386.49,852.06c22.38,81.18,57.17,163.76,103.61,246.09a120.91,120.91,0,1,0,103.2-57.89,121.78,121.78,0,0,0-19,1.49c-40.49-72.87-70.83-145.5-90.42-216.55-30.2-109.54-36-219.22-17.33-326,22.08-126.07,73.82-230,149.61-300.44,34.46-32,73.3-56.7,115.44-73.3A352.1,352.1,0,0,1,861.18,101c159.93,0,248.59,152.92,279.29,218.67,45.18,96.77,49.34,179.37,49.44,180.67l105.83,33.94C1295.32,528.23,1285.23,391,1232,276.94Z"/><path class="cls-1" d="M1285.44,951.55A120.9,120.9,0,1,0,1089.52,1092c-41.47,72.31-88,135.82-138.69,189.3-78.18,82.45-169.08,144.11-270.17,183.27-119.35,46.23-235,55.61-334.53,27.13-45.23-12.95-86.42-33.46-122.41-61a352.1,352.1,0,0,1-87.91-98.32c-82.63-136.93,2.49-291.85,42.93-352.1,59.51-88.68,111.52-121,112.58-121.74L261.64,752.18c-5,3.48-96.63,67.33-166.76,171.84-32,47.65-73.34,123.13-88.78,212.1-7.39,42.57-8.06,84.21-2,123.76a339.79,339.79,0,0,0,45.25,124.71A452.67,452.67,0,0,0,162.39,1511c46.06,35.21,98.53,61.39,156,77.83,46.7,13.37,95.92,20,146.85,20,80.87,0,166-16.78,251.95-50.06,115.14-44.6,218.42-114.56,307-208,57.94-61.11,110.67-133.55,157.17-215.86a120.92,120.92,0,0,0,104.15-183.38Z"/><path class="cls-1" d="M1686.25,1080.91c-31-121.81-109.5-235.69-226.93-329.32-96.55-77-209-130.93-334.32-160.35-82-19.25-171.13-28.29-265.65-27a120.91,120.91,0,1,0,1.36,118.32,121.76,121.76,0,0,0,7.8-17.41c83.36-.62,161.65,7.55,233.39,24.39,110.62,26,209.68,73.41,294.44,141,100.07,79.79,166.47,175,192,275.27,11.61,45.59,14.65,91.5,9,136.45a352.1,352.1,0,0,1-40.62,125.48c-76.63,140.38-253.33,144.92-325.76,140.37-106.59-6.71-164.08-36.52-165.26-37.06L976.3,1545c5.51,2.53,122.77,56.05,248.38,64,12.28.77,25.87,1.27,40.5,1.27,53.6,0,121-6.73,187.44-31.48,40.49-15.07,76.79-35.47,107.91-60.64a339.78,339.78,0,0,0,84.91-101.93,452.69,452.69,0,0,0,52.18-161.33C1704.81,1197.3,1701,1138.79,1686.25,1080.91Z"/></g></g></svg>