<svg xmlns="http://www.w3.org/2000/svg" viewBox="0 0 911.02 247"><defs><style>.cls-1{fill:#fff;}</style></defs><title>umbroLogo</title><g id="Layer_2" data-name="Layer 2"><g id="umbroLogo"><g id="BpIoC4"><path class="cls-1" d="M461.45,246a28.42,28.42,0,0,1-14.44.21q-67.47-16.88-134.94-33.72Q234,192.9,155.86,173.3c-13.85-3.47-27.68-7.05-41.54-10.51Q63.94,150.24,13.55,137.74c-6-1.49-11.15-4.12-13-10.66a13.63,13.63,0,0,1,9.74-16.92c30.05-7.5,60.13-14.92,90.17-22.45q71.21-17.86,142.39-35.82c32.87-8.22,65.79-16.25,98.67-24.41,19-4.72,38-9.52,57.06-14.27C416,8.86,433.38,4.42,450.86.29c2.63-.62,5.69-.14,8.4.47,16.73,3.76,33.41,7.7,50.11,11.57Q564,25,618.53,37.63,681.64,52.29,744.73,67c10.85,2.53,21.67,5.15,32.51,7.68Q838.31,88.87,899.38,103c5.88,1.37,9.88,4.76,11.29,10.75a12.84,12.84,0,0,1-7.4,14.91,123.72,123.72,0,0,1-14.52,4.59C869,138.55,504.69,234.53,461.45,246ZM71.71,123.43l.05.47c5.38,1.34,341.78,85.5,379.43,94.82a9,9,0,0,0,4.16.16c9.4-2.32,355.63-93.7,377.75-99.5,1.89-.5,3.77-1.06,5.65-1.59a2.29,2.29,0,0,0-1.44-.93q-19.1-4.42-38.21-8.84C751,96.85,486.84,35.33,457.11,28.44a11.43,11.43,0,0,0-5.1-.16C422,35.63,77,122.06,71.71,123.43Z"/><path class="cls-1" d="M445.61,181.73c-4.14-.93-9-2-13.85-3.11Q364,162.43,296.32,146.19c-12.11-2.91-24.19-5.9-36.29-8.85-7.53-1.83-12.21-7-12.3-13.65-.1-7,4.2-12.15,12.09-14.06,18.77-4.54,37.57-9,56.37-13.42q44.16-10.47,88.32-20.91,21.62-5.08,43.32-9.85a13.18,13.18,0,0,1,5.42,0c14.1,3,28.16,6.1,42.24,9.15q81.95,17.73,163.9,35.45a13.56,13.56,0,0,1,10.91,12.09c.51,6.44-2.74,12-9.2,13.88-7.31,2.18-14.83,3.68-22.3,5.29q-43.86,9.43-87.74,18.73c-22.36,4.78-44.71,9.61-67.08,14.36-10.48,2.22-21,4.33-31.49,6.43C450.5,181.25,448.46,181.38,445.61,181.73ZM321.18,123.59l.05.45q28.29,6.75,56.57,13.51c20.24,4.87,40.45,9.84,60.71,14.64,3.41.81,7.17,2,10.44,1.32,26.4-5.31,52.72-11,79.06-16.61,17-3.62,33.92-7.32,50.88-11,3.56-.77,7.15-1.45,11.63-2.35-1.68-.54-2.43-.85-3.2-1-16.26-3.51-32.54-7-48.8-10.49-25.46-5.53-50.93-11-76.33-16.76-7.51-1.71-14.79-2.74-22.18,0a4.84,4.84,0,0,1-.6.14l-102,24.14C332,120.92,326.59,122.27,321.18,123.59Z"/></g></g></g></svg>