<svg xmlns="http://www.w3.org/2000/svg" viewBox="0 0 802.76 469.12"><defs><style>.cls-1{fill:#fff;}</style></defs><title>underALogo</title><g id="Layer_2" data-name="Layer 2"><g id="underarmorLogo"><path class="cls-1" d="M764.78,310.65c-20.47-23.45-69.63-56-113-74,0,0,90.43-37.64,127.51-100,0,0,22.19-39.1,20.58-62.57,0,0-50.64-27.12-98.83-43.39C660.19,17,626,7.49,585.17,0c0,0,4.47,112.35,1.83,137.08-2.17,20.36-5.91,48.5-25.55,68.34,0,0-55.53-20.55-160.07-20.55-104.18.06-160.07,20.56-160.07,20.56-19.64-19.84-23.38-48-25.55-68.34C213.12,112.36,217.59,0,217.59,0c-40.83,7.49-75,17-115.85,30.76C53.55,47,2.9,74.16,2.9,74.16c-1.62,23.47,20.58,62.57,20.58,62.57C60.56,199,151,236.69,151,236.69c-43.38,18-92.54,50.52-113,74C3.5,350.16,0,394.22,0,394.22c16.15,9.24,34.12,20.72,93.09,43.11s124.16,31.78,124.16,31.78-1-54.93-.46-119.06,23.77-86.82,23.77-86.82c85.09,24.55,159,21.75,161,21.67,5.4.19,77.72,2.25,160.68-21.68,0,0,23.27,22.69,23.77,86.82s-.46,119.06-.46,119.06,65.18-9.39,124.16-31.78,76.94-33.88,93.09-43.11C802.76,394.21,799.26,350.15,764.78,310.65Zm-363.59-44.1h0c-90-.09-121.85-30.93-121.85-30.93,25-26.77,96.86-32.7,122-32.75,50.79.12,97.51,6.52,122,32.74C523.42,235.62,491.52,266.55,401.19,266.55Z"/></g></g></svg>